<svg xmlns="http://www.w3.org/2000/svg" xmlns:xlink="http://www.w3.org/1999/xlink" width="360.563" height="363.306" viewBox="0 0 360.563 363.306">
  <defs>
    <linearGradient id="linear-gradient" x1="0.5" y1="1" x2="0.5" gradientUnits="objectBoundingBox">
      <stop offset="0" stop-color="gray" stop-opacity="0.251"/>
      <stop offset="0.54" stop-color="gray" stop-opacity="0.122"/>
      <stop offset="1" stop-color="gray" stop-opacity="0.102"/>
    </linearGradient>
  </defs>
  <g id="Illustration" transform="translate(0 -0.694)">
    <g id="background">
      <path id="Oval_2" data-name="Oval 2" d="M98.369,300.028c63.237-7.5,166.759-53.443,193.927-157.515S215.041,0,133.032,0,0,50.595,0,132.669,35.132,307.529,98.369,300.028Z" transform="translate(72.687 0.694) rotate(14)" fill="#eff3fd"/>
      <ellipse id="Oval" cx="62.253" cy="7.667" rx="62.253" ry="7.667" transform="translate(145 255)" fill="#dde6fd"/>
      <ellipse id="Oval-2" data-name="Oval" cx="62.253" cy="4.667" rx="62.253" ry="4.667" transform="translate(82 241)" fill="#dde6fd"/>
    </g>
    <g id="Group" transform="translate(91 58)" opacity="0.5">
      <rect id="Rectangle" width="102.82" height="186.787" rx="13.64" transform="translate(1.422 0.511) rotate(-0.14)" fill="#a2abc9"/>
      <path id="Path" d="M97.763,47.056h0l-.1-43.136A3.918,3.918,0,0,0,93.747,0l-19.1.046a8.352,8.352,0,0,1-8.2,7.157L30.939,7.29A8.351,8.351,0,0,1,22.707.174L3.9.22A3.919,3.919,0,0,0,0,4.159l.105,43.5.3,126.059a3.918,3.918,0,0,0,3.922,3.912l89.852-.22a3.919,3.919,0,0,0,3.884-3.931Z" transform="translate(4.024 4.973)" fill="#fff"/>
      <path id="Rectangle-2" data-name="Rectangle" d="M0,1.443A1.534,1.534,0,0,1,1.441,0L21.471,0a1.534,1.534,0,0,1,1.441,1.44h0L0,1.443H1.44A1.534,1.534,0,0,1,0,0Z" transform="translate(40.456 7.487) rotate(-0.86)" fill="#dbdbdb"/>
      <ellipse id="Oval-3" data-name="Oval" cx="0.86" cy="0.865" rx="0.86" ry="0.865" transform="translate(67.37 6.792) rotate(-0.86)" fill="#dbdbdb"/>
      <rect id="Rectangle-3" data-name="Rectangle" width="47.869" height="3.842" transform="translate(44.772 28.355)" fill="#e0e0e0"/>
      <rect id="Rectangle-4" data-name="Rectangle" width="47.869" height="3.842" transform="translate(44.772 36.038)" fill="#e0e0e0"/>
      <ellipse id="Oval-4" data-name="Oval" cx="9.041" cy="9.143" rx="9.041" ry="9.143" transform="translate(12.008 23.391)" fill="#f5f5f5"/>
      <path id="Path-2" data-name="Path" d="M9.75,0H1.908A2.333,2.333,0,0,0,0,1.02a11.7,11.7,0,0,0,11.591.065A2.332,2.332,0,0,0,9.75,0Z" transform="translate(15.195 38.933)" fill="#96b0f7"/>
      <path id="Path-3" data-name="Path" d="M1.776,0S.628,3.364,0,3.049c0,0,6.049,5.258,11.388,0A16.016,16.016,0,0,0,9.089,0Z" transform="translate(15.391 32.767)" fill="#333"/>
      <ellipse id="Oval-5" data-name="Oval" cx="4.493" cy="4.522" rx="4.493" ry="4.522" transform="translate(16.55 27.93)" fill="#333"/>
      <path id="Path-4" data-name="Path" d="M.013,0H3.148V1.226A1.444,1.444,0,0,1,1.709,2.675h-.27A1.444,1.444,0,0,1,0,1.226V0Z" transform="translate(19.451 37.365)" opacity="0.1"/>
      <path id="Path-5" data-name="Path" d="M.332,0H2.806a.333.333,0,0,1,.332.334v.9A1.444,1.444,0,0,1,1.7,2.683h-.27A1.444,1.444,0,0,1,0,1.234V.342A.335.335,0,0,1,.094.1.33.33,0,0,1,.332,0Z" transform="translate(19.464 37.289)" fill="#fda57d"/>
      <path id="Path-6" data-name="Path" d="M0,.366a4.482,4.482,0,0,0,3.135,0V0H0Z" transform="translate(19.472 37.379)" opacity="0.1"/>
      <ellipse id="Oval-6" data-name="Oval" cx="4.493" cy="4.522" rx="4.493" ry="4.522" transform="translate(16.55 28.912)" fill="#fda57d"/>
      <path id="Path-7" data-name="Path" d="M0,3.266H8.566S7.836-.215,4.6.01A5.816,5.816,0,0,0,0,3.266Z" transform="translate(16.75 28.451)" fill="#333"/>
      <ellipse id="Oval-7" data-name="Oval" cx="0.418" cy="0.789" rx="0.418" ry="0.789" transform="translate(16.227 32.452)" fill="#fda57d"/>
      <ellipse id="Oval-8" data-name="Oval" cx="0.418" cy="0.789" rx="0.418" ry="0.789" transform="translate(25.003 32.452)" fill="#fda57d"/>
      <path id="Path-8" data-name="Path" d="M0,3.266H8.566S7.836-.215,4.6.01A5.816,5.816,0,0,0,0,3.266Z" transform="translate(16.75 28.57)" opacity="0.1"/>
      <rect id="Rectangle-5" data-name="Rectangle" width="47.869" height="3.842" transform="translate(44.772 57.617)" fill="#e0e0e0"/>
      <rect id="Rectangle-6" data-name="Rectangle" width="47.869" height="3.842" transform="translate(44.772 65.3)" fill="#e0e0e0"/>
      <ellipse id="Oval-9" data-name="Oval" cx="9.041" cy="9.143" rx="9.041" ry="9.143" transform="translate(12.008 52.652)" fill="#e0e0e0"/>
      <rect id="Rectangle-7" data-name="Rectangle" width="47.869" height="3.842" transform="translate(44.772 86.879)" fill="#e0e0e0"/>
      <rect id="Rectangle-8" data-name="Rectangle" width="47.869" height="3.842" transform="translate(44.772 94.562)" fill="#e0e0e0"/>
      <ellipse id="Oval-10" data-name="Oval" cx="9.041" cy="9.143" rx="9.041" ry="9.143" transform="translate(12.008 81.914)" fill="#e0e0e0"/>
      <rect id="Rectangle-9" data-name="Rectangle" width="47.869" height="3.842" transform="translate(44.772 116.14)" fill="#e0e0e0"/>
      <rect id="Rectangle-10" data-name="Rectangle" width="47.869" height="3.842" transform="translate(44.772 123.823)" fill="#e0e0e0"/>
      <ellipse id="Oval-11" data-name="Oval" cx="9.041" cy="9.143" rx="9.041" ry="9.143" transform="translate(12.008 111.176)" fill="#e0e0e0"/>
      <rect id="Rectangle-11" data-name="Rectangle" width="47.869" height="3.842" transform="translate(44.772 145.402)" fill="#e0e0e0"/>
      <rect id="Rectangle-12" data-name="Rectangle" width="47.869" height="3.842" transform="translate(44.772 153.085)" fill="#e0e0e0"/>
      <ellipse id="Oval-12" data-name="Oval" cx="9.041" cy="9.143" rx="9.041" ry="9.143" transform="translate(12.008 140.437)" fill="#e0e0e0"/>
    </g>
    <rect id="Rectangle-13" data-name="Rectangle" width="102.89" height="186.517" rx="13.64" transform="translate(155.312 80.351) rotate(-0.14)" fill="#e7ecf8"/>
    <path id="_9f21819d-df43-48b3-835e-9020276cbed3" data-name="9f21819d-df43-48b3-835e-9020276cbed3" d="M98.1,47.405,98,3.924A3.927,3.927,0,0,0,94.072,0L74.9.046a8.374,8.374,0,0,1-8.225,7.163L31.045,7.3A8.373,8.373,0,0,1,22.785.174L3.908.22A3.927,3.927,0,0,0,0,4.163L.105,47.7" transform="translate(157.602 85.001)" fill="#fafafa"/>
    <path id="c36a71a1-8927-4a8e-aa0b-340c78108d04" d="M0,.6.305,126.585A3.92,3.92,0,0,0,4.224,130.5l89.978-.22a3.92,3.92,0,0,0,3.9-3.937L97.795,0" transform="translate(157.602 131.802)" fill="#fafafa"/>
    <rect id="Rectangle-14" data-name="Rectangle" width="18.9" height="18.9" transform="translate(166.602 103.001)" fill="#e0e0e0"/>
    <g id="Group-2" data-name="Group" transform="translate(144.101 138.102)" opacity="0.5">
      <rect id="Rectangle-15" data-name="Rectangle" width="125.904" height="42.95" transform="translate(0.1 0.049)" fill="url(#linear-gradient)"/>
    </g>
    <rect id="Rectangle-16" data-name="Rectangle" width="123.303" height="39.601" transform="translate(145.001 139.902)" fill="#fff"/>
    <rect id="Rectangle-17" data-name="Rectangle" width="47.701" height="3.6" transform="translate(194.503 154.302)" fill="#96b0f7"/>
    <rect id="Rectangle-18" data-name="Rectangle" width="47.701" height="3.6" transform="translate(194.503 162.403)" fill="#96b0f7"/>
    <rect id="Rectangle-19" data-name="Rectangle" width="47.701" height="3.6" transform="translate(194.503 197.503)" fill="#e0e0e0"/>
    <rect id="Rectangle-20" data-name="Rectangle" width="47.701" height="3.6" transform="translate(194.503 204.704)" fill="#eee"/>
    <rect id="Rectangle-21" data-name="Rectangle" width="21.601" height="7.2" transform="translate(208.003 118.302)" fill="#96b0f7"/>
    <circle id="Oval-13" data-name="Oval" cx="9" cy="9" r="9" transform="translate(162.102 149.802)" fill="#f5f5f5"/>
    <path id="Path-9" data-name="Path" d="M9.845,0H1.926A2.336,2.336,0,0,0,0,1.064a11.48,11.48,0,0,0,11.7.068A2.342,2.342,0,0,0,9.845,0Z" transform="translate(164.802 165.103)" fill="#96b0f7"/>
    <path id="Path-10" data-name="Path" d="M1.825,0S.645,3.373,0,3.057c0,0,6.214,5.271,11.7,0A16.1,16.1,0,0,0,9.338,0Z" transform="translate(164.802 158.803)" fill="#333"/>
    <circle id="Oval-14" data-name="Oval" cx="4.5" cy="4.5" r="4.5" transform="translate(166.602 154.302)" fill="#333"/>
    <path id="Path-11" data-name="Path" d="M.015,0H3.6V1.238A1.562,1.562,0,0,1,1.954,2.7H1.646A1.562,1.562,0,0,1,0,1.238V0Z" transform="translate(169.302 163.303)" opacity="0.1"/>
    <path id="Path-12" data-name="Path" d="M.394,0H3.221A.36.36,0,0,1,3.6.336v.9a1.383,1.383,0,0,1-.482,1.036A1.755,1.755,0,0,1,1.952,2.7H1.645A1.561,1.561,0,0,1,0,1.239v-.9A.319.319,0,0,1,.111.1.4.4,0,0,1,.379,0Z" transform="translate(169.302 163.303)" fill="#fda57d"/>
    <path id="Path-13" data-name="Path" d="M0,.52a2.59,2.59,0,0,0,2.7,0V0H0Z" transform="translate(169.302 163.303)" opacity="0.1"/>
    <circle id="Oval-15" data-name="Oval" cx="4.5" cy="4.5" r="4.5" transform="translate(166.602 155.202)" fill="#fda57d"/>
    <path id="Path-14" data-name="Path" d="M0,3.6H9S8.233-.237,4.829.012,0,3.6,0,3.6Z" transform="translate(166.602 154.302)" fill="#333"/>
    <ellipse id="Oval-16" data-name="Oval" cx="0.45" cy="0.9" rx="0.45" ry="0.9" transform="translate(165.702 158.803)" fill="#fda57d"/>
    <ellipse id="Oval-17" data-name="Oval" cx="0.45" cy="0.9" rx="0.45" ry="0.9" transform="translate(174.702 158.803)" fill="#fda57d"/>
    <path id="Path-15" data-name="Path" d="M0,3.6H9S8.233-.237,4.829.012,0,3.6,0,3.6Z" transform="translate(166.602 154.302)" opacity="0.1"/>
    <circle id="Oval-18" data-name="Oval" cx="9" cy="9" r="9" transform="translate(167.502 192.103)" fill="#e0e0e0"/>
    <circle id="Oval-19" data-name="Oval" cx="9" cy="9" r="9" transform="translate(167.502 227.204)" fill="#e0e0e0"/>
    <rect id="Rectangle-22" data-name="Rectangle" width="47.701" height="3.6" transform="translate(194.503 230.804)" fill="#e0e0e0"/>
    <rect id="Rectangle-23" data-name="Rectangle" width="47.701" height="3.6" transform="translate(194.503 238.905)" fill="#eee"/>
    <rect id="Rectangle-24" data-name="Rectangle" width="47.701" height="3.6" transform="translate(194.503 103.001)" fill="#e0e0e0"/>
    <rect id="Rectangle-25" data-name="Rectangle" width="47.701" height="3.6" transform="translate(194.503 110.201)" fill="#e0e0e0"/>
    <path id="Rectangle-26" data-name="Rectangle" d="M0,1.44A1.532,1.532,0,0,1,1.439,0H21.489a1.532,1.532,0,0,1,1.438,1.438H1.438A1.532,1.532,0,0,1,0,0Z" transform="translate(194.371 87.32) rotate(-0.86)" fill="#dbdbdb"/>
    <ellipse id="Oval-20" data-name="Oval" cx="0.86" cy="0.864" rx="0.86" ry="0.864" transform="translate(221.304 86.628) rotate(-0.86)" fill="#dbdbdb"/>
  </g>
</svg>
