<svg xmlns="http://www.w3.org/2000/svg" xmlns:xlink="http://www.w3.org/1999/xlink" width="279.758" height="189.452" viewBox="0 0 279.758 189.452">
  <defs>
    <linearGradient id="linear-gradient" x1="0.501" y1="1" x2="0.501" gradientUnits="objectBoundingBox">
      <stop offset="0" stop-color="gray" stop-opacity="0.251"/>
      <stop offset="0.54" stop-color="gray" stop-opacity="0.122"/>
      <stop offset="1" stop-color="gray" stop-opacity="0.102"/>
    </linearGradient>
    <linearGradient id="linear-gradient-2" x1="0.5" y1="1" x2="0.5" y2="0" xlink:href="#linear-gradient"/>
    <linearGradient id="linear-gradient-3" x1="0.5" y1="1" x2="0.5" y2="0" xlink:href="#linear-gradient"/>
  </defs>
  <g id="boarding_img_three_light" transform="translate(-0.242 -0.01)">
    <path id="Path" d="M279.758,112.812c0-17.384-7.351-32.739-18.585-41.973q.232-2.634.245-5.343c0-28.227-19.377-51.109-43.284-51.109a38.06,38.06,0,0,0-21.009,6.419C180.205,7.845,158.116,0,133.95,0,94.63,0,60.808,20.769,45.8,50.552c-.834-.056-1.673-.088-2.519-.088C19.382,50.464,0,73.345,0,101.573a57.652,57.652,0,0,0,7.121,28.093h0a45.974,45.974,0,0,0,45.974,45.974H237.266a36.1,36.1,0,0,0,36.1-36.1h0A57.914,57.914,0,0,0,279.758,112.812Z" transform="translate(0.242 0.01)" fill="rgba(150,176,247,0.1)"/>
    <path id="Path-2" data-name="Path" d="M5.984,1.079S2.979-.9,0,.507c0,0,.917,1.768,4.688,1.6Z" transform="translate(153.584 161.451)" fill="#9baaf8"/>
    <path id="Path-3" data-name="Path" d="M1.992,0S2.907,3.485.613,5.852c0,0-1.379-1.435,0-4.952Z" transform="translate(157.938 162.635)" fill="#9baaf8"/>
    <path id="Path-4" data-name="Path" d="M6.908,2.178S6.688-.783,0,.2A3.194,3.194,0,0,0,2.316,3.017,3.855,3.855,0,0,0,6.908,2.178Z" transform="translate(156.776 157.106)" fill="#9baaf8"/>
    <path id="Path-5" data-name="Path" d="M1.96,0s2.827.91.306,7.18a3.2,3.2,0,0,1-2.2-2.91A3.85,3.85,0,0,1,1.96,0Z" transform="translate(162.127 159.285)" fill="#9baaf8"/>
    <path id="Path-6" data-name="Path" d="M6.461,4.409S6.843-.465.01.036c0,0-.489,4.4,5.245,5.544Z" transform="translate(161.421 150.663)" fill="#9baaf8"/>
    <path id="Path-7" data-name="Path" d="M7.769,4.182S6.832-1.339,0,.306C0,.306-.024,5.08,6.654,5.5Z" transform="translate(164.633 145.387)" fill="#9baaf8"/>
    <path id="Path-8" data-name="Path" d="M8.336,4.07S6.769-1.31,0,.3c0,0,1.612,4.837,7.889,4.761Z" transform="translate(167.362 139.809)" fill="#9baaf8"/>
    <path id="Path-9" data-name="Path" d="M8.07,4.225S6.534-1.36,0,.313c0,0,2.179,5.3,7.637,4.857Z" transform="translate(170.766 134.102)" fill="#9baaf8"/>
    <path id="Path-10" data-name="Path" d="M7.273,5.537S6.094-1.293,0,.218c0,0,1.77,6.211,6.825,6.312Z" transform="translate(173.583 127.513)" fill="#9baaf8"/>
    <path id="Path-11" data-name="Path" d="M7.581,5.252S6.165-1.629,0,.361c0,0,2.419,6.5,7.146,5.832Z" transform="translate(175.17 121.42)" fill="#9baaf8"/>
    <path id="Path-12" data-name="Path" d="M7.013,6.7S4.766-.182,0,0c0,0,2.3,7.268,6.6,8.07Z" transform="translate(176.911 114.041)" fill="#9baaf8"/>
    <path id="Path-13" data-name="Path" d="M6.324,7.68S3.878-.605,0,.035c0,0,1.692,6.331,6.187,8.936Z" transform="translate(178.344 107.269)" fill="#9baaf8"/>
    <path id="Path-14" data-name="Path" d="M6.114,7.177S3.822.274,0,0C0,0,1.56,6.791,6.038,8.972Z" transform="translate(178.977 100.856)" fill="#9baaf8"/>
    <path id="Path-15" data-name="Path" d="M5.38,7.067S2.521.157,0,0C0,0,1.242,6.806,5.135,8.2Z" transform="translate(180.176 94.528)" fill="#9baaf8"/>
    <path id="Path-16" data-name="Path" d="M4.287,8.129S2.529.624,0,0C0,0,.347,6.14,4.032,8.691Z" transform="translate(181.587 87.47)" fill="#9baaf8"/>
    <path id="Path-17" data-name="Path" d="M3.9,6.894S2.047.9,0,0C0,0,.4,7.053,3.424,8.356Z" transform="translate(182.929 80.86)" fill="#9baaf8"/>
    <path id="Path-18" data-name="Path" d="M1.537,10.55,1.909,0s-3.82,7.962-.653,12.41Z" transform="translate(186.077 72.049)" fill="#9baaf8"/>
    <path id="Path-19" data-name="Path" d="M1.489,8.131S4.245.428,4.912,0c0,0-5.4,5-4.876,11.425Z" transform="translate(189.08 63.984)" fill="#9baaf8"/>
    <path id="Path-20" data-name="Path" d="M1.108.016s4.847-.641,4.7,6.206c0,0-4.38.714-5.81-4.95Z" transform="translate(166.961 155.018)" fill="#9baaf8"/>
    <path id="Path-21" data-name="Path" d="M1.115,0s5.6-.02,5.135,6.991c0,0-4.7.841-6.25-5.668Z" transform="translate(171.514 149.385)" fill="#9baaf8"/>
    <path id="Path-22" data-name="Path" d="M.45.455S5.534-1.93,8.786,4.223c0,0-4.7,1.988-8.786-2.776Z" transform="translate(175.304 143.881)" fill="#9baaf8"/>
    <path id="Path-23" data-name="Path" d="M.43.532S5.637-2.006,8.693,4.007c0,0-5.424,1.866-8.693-2.526Z" transform="translate(178.518 137.847)" fill="#9baaf8"/>
    <path id="Path-24" data-name="Path" d="M.23,2.111s5.011-4.786,9.009.054c0,0-5.118,3.94-9.239,1.012Z" transform="translate(180.56 131.086)" fill="#9baaf8"/>
    <path id="Path-25" data-name="Path" d="M.181,2.108s5.04-4.891,9.006.227c0,0-5.659,4.015-9.187.8Z" transform="translate(182.286 124.408)" fill="#9baaf8"/>
    <path id="Path-26" data-name="Path" d="M0,4.946S3.883-1.168,8.456.2c0,0-4.03,6.471-8.412,6.182Z" transform="translate(183.406 115.598)" fill="#9baaf8"/>
    <path id="Path-27" data-name="Path" d="M.1,6.515S4.013-1.185,7.715.157c0,0-2.822,5.915-7.715,7.657Z" transform="translate(184.453 108.397)" fill="#9baaf8"/>
    <path id="Path-28" data-name="Path" d="M.389,5.384S4.414-.678,8.18.063c0,0-3.287,6.145-8.18,7.075Z" transform="translate(184.433 102.258)" fill="#9baaf8"/>
    <path id="Path-29" data-name="Path" d="M0,6.859S3.118.061,5.651,0c0,0-1.5,6.754-5.441,8Z" transform="translate(185.13 94.601)" fill="#9baaf8"/>
    <path id="Path-30" data-name="Path" d="M0,6.9S3.465.015,6.067,0c0,0-1.773,5.889-5.952,7.507Z" transform="translate(185.749 88.558)" fill="#9baaf8"/>
    <path id="Path-31" data-name="Path" d="M0,6.358S2.592.658,4.737,0c0,0-1.3,6.945-4.453,7.857Z" transform="translate(186.27 81.819)" fill="#9baaf8"/>
    <path id="Path-32" data-name="Path" d="M.846,8.826,6.639,0S5.155,8.706,0,10.515Z" transform="translate(187.077 73.575)" fill="#9baaf8"/>
    <path id="Path-33" data-name="Path" d="M2.8,5.4S9.537.751,9.782,0C9.782,0,6.358,6.51,0,7.659Z" transform="translate(189.094 67.427)" fill="#9baaf8"/>
    <path id="Path-34" data-name="Path" d="M.186,7.424S7.916-.007,9.889,0A12.626,12.626,0,0,0,0,7.028Z" transform="translate(192.117 63.312)" fill="#9baaf8"/>
    <path id="Path-35" data-name="Path" d="M0,19.155l.284.034C1.736,7.82,3.854,1.093,6.246.269L6.153,0C3.619.88,1.492,7.5,0,19.155Z" transform="translate(186.341 70.125)" fill="#444053"/>
    <path id="Path-36" data-name="Path" d="M0,28.029l.426.037c.09-1.064.159-2.15.205-3.23C1.037,15.423,1.665,6.784,2.492.3L2.247,0C1.418,6.49.614,15.406.208,24.816.159,25.892.09,26.973,0,28.029Z" transform="translate(184.208 88.436)" fill="#444053"/>
    <path id="Path-37" data-name="Path" d="M.23,52.3A55.389,55.389,0,0,0,15.568,40.946a61.678,61.678,0,0,0,11.212-15.9A71.993,71.993,0,0,0,33.3,0l-.443.21c-1.651,19.61-10.579,33.013-17.678,40.31A54.749,54.749,0,0,1,0,51.769Z" transform="translate(151.401 115.641)" fill="#444053"/>
    <path id="Path-38" data-name="Path" d="M63.273,2.563V26.572a2.545,2.545,0,0,1-2.732,2.3H2.732A2.545,2.545,0,0,1,0,26.572V2.563A2.752,2.752,0,0,1,2.732,0h57.81A2.75,2.75,0,0,1,63.273,2.563Z" transform="translate(100.147 22.936)" fill="#fff"/>
    <path id="Path-39" data-name="Path" d="M63.273,2.727v6.7H0v-6.7A2.729,2.729,0,0,1,2.732,0h57.81a2.727,2.727,0,0,1,2.732,2.727Z" transform="translate(100.147 22.938)" fill="#9baaf8" opacity="0.2"/>
    <circle id="Oval" cx="1.827" cy="1.827" r="1.827" transform="translate(101.79 25.821)" fill="#fff"/>
    <circle id="Oval-2" data-name="Oval" cx="1.827" cy="1.827" r="1.827" transform="translate(107.104 25.821)" fill="#fff"/>
    <circle id="Oval-3" data-name="Oval" cx="1.827" cy="1.827" r="1.827" transform="translate(112.418 25.821)" fill="#fff"/>
    <circle id="Oval-4" data-name="Oval" cx="7.141" cy="7.141" r="7.141" transform="translate(105.542 34.788)" fill="#9baaf8" opacity="0.2"/>
    <rect id="Rectangle" width="30.113" height="1.064" transform="translate(127.915 37.124)" fill="#9baaf8"/>
    <rect id="Rectangle-2" data-name="Rectangle" width="30.113" height="1.064" transform="translate(127.915 39.716)" fill="#9baaf8" opacity="0.2"/>
    <rect id="Rectangle-3" data-name="Rectangle" width="30.113" height="1.064" transform="translate(127.915 42.306)" fill="#9baaf8" opacity="0.2"/>
    <rect id="Rectangle-4" data-name="Rectangle" width="30.113" height="1.064" transform="translate(127.915 44.895)" fill="#9baaf8" opacity="0.2"/>
    <path id="Path-40" data-name="Path" d="M63.278,2.563V45.172a2.545,2.545,0,0,1-2.732,2.3H2.732A2.545,2.545,0,0,1,0,45.172V2.563A2.752,2.752,0,0,1,2.732,0H60.546A2.761,2.761,0,0,1,63.278,2.563Z" transform="translate(172.605 8.808)" fill="#fff"/>
    <path id="Path-41" data-name="Path" d="M63.275,2.732v6.7H0v-6.7A2.732,2.732,0,0,1,2.729,0H60.544a2.732,2.732,0,0,1,2.732,2.732Z" transform="translate(172.607 8.808)" fill="#9baaf8" opacity="0.2"/>
    <circle id="Oval-5" data-name="Oval" cx="1.827" cy="1.827" r="1.827" transform="translate(174.25 11.694)" fill="#fff"/>
    <circle id="Oval-6" data-name="Oval" cx="1.827" cy="1.827" r="1.827" transform="translate(179.564 11.694)" fill="#fff"/>
    <circle id="Oval-7" data-name="Oval" cx="1.827" cy="1.827" r="1.827" transform="translate(184.878 11.694)" fill="#fff"/>
    <circle id="Oval-8" data-name="Oval" cx="7.141" cy="7.141" r="7.141" transform="translate(178.002 20.661)" fill="#9baaf8" opacity="0.2"/>
    <rect id="Rectangle-5" data-name="Rectangle" width="30.113" height="1.064" transform="translate(200.375 22.999)" fill="#9baaf8"/>
    <rect id="Rectangle-6" data-name="Rectangle" width="30.113" height="1.064" transform="translate(200.375 25.589)" fill="#9baaf8" opacity="0.2"/>
    <rect id="Rectangle-7" data-name="Rectangle" width="30.113" height="1.064" transform="translate(200.375 28.179)" fill="#9baaf8" opacity="0.2"/>
    <rect id="Rectangle-8" data-name="Rectangle" width="30.113" height="1.064" transform="translate(200.375 30.771)" fill="#9baaf8" opacity="0.2"/>
    <circle id="Oval-9" data-name="Oval" cx="7.141" cy="7.141" r="7.141" transform="translate(178.002 37.368)" fill="#9baaf8" opacity="0.2"/>
    <rect id="Rectangle-9" data-name="Rectangle" width="30.113" height="1.064" transform="translate(200.375 39.704)" fill="#9baaf8"/>
    <rect id="Rectangle-10" data-name="Rectangle" width="30.113" height="1.064" transform="translate(200.375 42.296)" fill="#9baaf8" opacity="0.2"/>
    <rect id="Rectangle-11" data-name="Rectangle" width="30.113" height="1.064" transform="translate(200.375 44.886)" fill="#9baaf8" opacity="0.2"/>
    <rect id="Rectangle-12" data-name="Rectangle" width="30.113" height="1.064" transform="translate(200.375 47.475)" fill="#9baaf8" opacity="0.2"/>
    <path id="Path-42" data-name="Path" d="M122.19,5.556V97.941a5.137,5.137,0,0,1-5.275,4.981H5.275A5.137,5.137,0,0,1,0,97.941V5.556A5.634,5.634,0,0,1,5.275,0h111.64C119.829-.01,122.19,2.8,122.19,5.556Z" transform="translate(17.037 68.325)" fill="#fff"/>
    <path id="Path-43" data-name="Path" d="M137.188,5.933V20.453H0V5.933A5.92,5.92,0,0,1,5.92,0H131.265a5.92,5.92,0,0,1,5.923,5.933Z" transform="translate(17.04 68.315)" fill="#9baaf8" opacity="0.2"/>
    <circle id="Oval-10" data-name="Oval" cx="3.959" cy="3.959" r="3.959" transform="translate(20.603 74.588)" fill="#fff"/>
    <circle id="Oval-11" data-name="Oval" cx="3.959" cy="3.959" r="3.959" transform="translate(32.125 74.588)" fill="#fff"/>
    <circle id="Oval-12" data-name="Oval" cx="3.959" cy="3.959" r="3.959" transform="translate(43.646 74.588)" fill="#fff"/>
    <path id="Path-44" data-name="Path" d="M37.3,30.108a2.537,2.537,0,0,1,.391-1.346,3.877,3.877,0,0,1,.249-.343,17.039,17.039,0,0,0,3.271-9.973C41.242,8.262,32.021,0,20.622,0,10.671,0,2.383,6.307.439,14.678A16.609,16.609,0,0,0,0,18.456c0,10.2,8.865,18.678,20.266,18.678a26.1,26.1,0,0,0,5.592-.85c1.338-.341,2.665-.8,3.01-.917a3.36,3.36,0,0,1,1.1-.187,3.264,3.264,0,0,1,1.2.22l6.721,2.221a1.711,1.711,0,0,0,.462.109.978.978,0,0,0,.671-.257.848.848,0,0,0,.276-.626,1.336,1.336,0,0,0-.059-.3Z" transform="translate(67.207 104.748)" fill="#9baaf8" opacity="0.37"/>
    <path id="Path-45" data-name="Path" d="M32.057,23.085c-.426.109-.972.232-1.564.353a23.333,23.333,0,0,1-4.03.5c-11.4,0-20.258-8.483-20.258-18.678a19.616,19.616,0,0,1,.178-2.363c.071-.475.155-.949.272-1.413.119-.5.261-.994.416-1.481L6.122.783A16,16,0,0,0,0,13.148a15.48,15.48,0,0,0,2.939,9.057c.272.388.426.686.378.884s-1.409,6.848-1.409,6.848a.851.851,0,0,0,.32.85,1.01,1.01,0,0,0,.6.2.888.888,0,0,0,.343-.066l6.649-2.441a1.977,1.977,0,0,1,1.422.023,21.242,21.242,0,0,0,7.193,1.325,19.21,19.21,0,0,0,14.234-6.086s.38-.485.817-1.06c-.437.144-.936.287-1.434.409Z" transform="translate(59.113 119.721)" fill="#9baaf8" opacity="0.37"/>
    <path id="Shape" d="M42,62.532a.541.541,0,0,1-.158-.025,39.4,39.4,0,0,0-5.9-.49h-.007c-.4.029-3.96.286-6.244.286a6.974,6.974,0,0,1-1.836-.139,18.141,18.141,0,0,0-3.076-.489,1.29,1.29,0,0,1-.578.489h-.022a.635.635,0,0,1-.218.115,1.4,1.4,0,0,1-.347.04,6.638,6.638,0,0,1-2.4-.773,11.6,11.6,0,0,1-2.074-.443,8.138,8.138,0,0,0-.893-.211c-1.454.13-2.475.2-3.032.2a5.733,5.733,0,0,0-2.235.59l-.007,0a9.833,9.833,0,0,1-2.751.793,2.29,2.29,0,0,1-.253.015A.959.959,0,0,1,9.1,62.1c-.5-.759.158-2.384.235-2.566a13.86,13.86,0,0,1-3.364-1.006,6.834,6.834,0,0,0-1.2-.685c-.037,0-.923-.092-1.078-.362a5.207,5.207,0,0,0-.876-.847A7.444,7.444,0,0,1,.8,54.076C-.29,51.987-.069,50.566.31,49.741c.4-.874,1.514-1.915,4.535-1.915a10.785,10.785,0,0,1,3.6.546,14.669,14.669,0,0,0,2,.677V44.237c-.4-.278-1.724-1.214-1.685-1.543a.6.6,0,0,0-.135-.491,1.544,1.544,0,0,0-1.108-.331,3.12,3.12,0,0,0-.315.015c.048-.2.28-1.215.067-1.572a.246.246,0,0,0-.152-.12.315.315,0,0,1-.223-.169c-.138-.284.115-.84.223-1.078a1.389,1.389,0,0,0,.04-1.33.156.156,0,0,1-.033-.143c.075-.313.959-.7.968-.7a1.942,1.942,0,0,0,.041-1.209c-.214-.426.459-1.1.488-1.126L9.962,25.17c0-.005.007-.021.015-.046l.012-.035a10.221,10.221,0,0,0,.728-2.9.365.365,0,0,1,.08-.275A4.937,4.937,0,0,1,12.791,20.3a7.342,7.342,0,0,0,.932-.286c0-.049,0-.1,0-.155v-.019a1.948,1.948,0,0,0,0-.269,2.333,2.333,0,0,1-.015-.328,7.489,7.489,0,0,0-.141-1.017c-.085-.4-.206-.806-.323-1.2L13.236,17a12.978,12.978,0,0,1-.379-1.468V15.5l0-.014c0-.012,0-.026-.007-.039a1.165,1.165,0,0,1-.018-.125v-.078l-.014-.134v-.194a3.606,3.606,0,0,1,.017-.652,6.815,6.815,0,0,1,1.086-2.59l0-.006c.183-.307.39-.656.565-1A8.564,8.564,0,0,0,15.4,6.368V6.083c0-.007,0-.013,0-.02s0-.012,0-.017a.507.507,0,0,0,0-.09c0-.029-.007-.066-.011-.1s-.008-.066-.008-.08V5.694c0-.028-.008-.055-.011-.083s-.008-.061-.012-.09c-.018-.128-.038-.266-.053-.4V4.848a1.922,1.922,0,0,1,.35-1.467,2.35,2.35,0,0,1,1.35-.582l.008,0a2.751,2.751,0,0,0,1.254-.477,2.67,2.67,0,0,0,.551-.748l.007-.012c.075-.13.152-.265.237-.389A2.773,2.773,0,0,1,22.045.095,5.624,5.624,0,0,1,22.81.4l.012.006a6.468,6.468,0,0,0,.672.282A6.13,6.13,0,0,0,25,.923c.209.014.451.032.684.059a2.584,2.584,0,0,1,1.927.946,3.191,3.191,0,0,1,.288.559l0,.011a3.753,3.753,0,0,0,.238.486,3.965,3.965,0,0,0,1.206,1.093l.013.009a7.622,7.622,0,0,1,.7.518A3.788,3.788,0,0,1,31.3,7.331V7.5c0,.021,0,.04,0,.061s0,.07-.008.1-.009.092-.009.141a3.552,3.552,0,0,1-.181.806,7.988,7.988,0,0,1-.517,1.089,4.594,4.594,0,0,0-.659,1.741,2.225,2.225,0,0,0,0,.311,4.2,4.2,0,0,0,.085.542l0,.01a3.931,3.931,0,0,1,.083.526v.13a1.391,1.391,0,0,1-.012.176c-.1.719-.713,1.109-1.363,1.522a3.652,3.652,0,0,0-1.3,1.141V15.33a5.889,5.889,0,0,1-.638.846l0,.012c.017.043.039.1.063.151A5.248,5.248,0,0,0,29.281,18.9l.137.071a6.025,6.025,0,0,1,1.336.289,7.709,7.709,0,0,0,1.956.271,10.062,10.062,0,0,1,1.517.563,10.221,10.221,0,0,0,1.435.565c.037.011.918.3,1.157,2.578.241,2.3.487,3.657.49,3.668v4.066h.017c.029,0,.075,0,.13,0,.149,0,.411.019.494.149a.223.223,0,0,1-.006.22,2.406,2.406,0,0,1-.193.329c-.173.26-.31.466-.051.759a1.074,1.074,0,0,1,.194.967.375.375,0,0,1-.235.283c-.226.057-.559.231-.569.4,0,.082.067.151.211.207.544.21.837.571.837.8a1.461,1.461,0,0,1-.159.887c-.194.271-.4.92-.158,1.166s-.2,1.48-.2,1.492c.03.08.735,1.99.039,2.538l-.008.031c-.094.332-.317,1.112-.349,1.177l-.007.014c-.219.4-.993,1.819-1.753,3.092V48.1a5.212,5.212,0,0,0,2.039-1.3c1.51-1.728,5.305-2.65,5.343-2.659A9.932,9.932,0,0,1,43.93,44.1c1.362,0,3.8.244,4.859,1.881.79,1.223.664,3.005-.373,5.3-.027.1-.274.97-.719,1.222-.4.225-1.259.769-1.612.992l-.021.013a8.3,8.3,0,0,1-2.236,1.773c-1.316.685-3.616,1.806-3.629,1.812s-.564.049-1.448.13a4.5,4.5,0,0,1-.457.558h.134a9.711,9.711,0,0,1,1.837.175,2.734,2.734,0,0,1,1.813,1.559,4.285,4.285,0,0,1,.47,2.216C42.494,62.238,42.3,62.532,42,62.532ZM32.572,36.688c.019.327.048.811.084,1.4,0,.071.007.153.014.248l.007.1.008.126c0-.043,0-.084-.008-.126l-.021-.344v-.019a1.024,1.024,0,0,1,.152-.58c.086-.163.153-.291.023-.466C32.738,36.9,32.651,36.791,32.572,36.688Z" transform="translate(7.401 126.93)" fill="url(#linear-gradient)"/>
    <path id="Path-46" data-name="Path" d="M11.718,1.537a23.491,23.491,0,0,1-3.272-1C7.409.06,1.586-.857.31,1.9s1.756,6.422,2.514,6.82S10.96,3.65,10.96,3.65L16.782,6.1,17.9,2.286Z" transform="translate(7.494 174.794)" fill="#65617d"/>
    <rect id="Rectangle-13" data-name="Rectangle" width="25.339" height="8.816" rx="4.408" transform="translate(21.674 177.087)" fill="#65617d"/>
    <path id="Path-47" data-name="Path" d="M25.341,4.414a4.4,4.4,0,0,1-4.4,4.4H4.408A4.408,4.408,0,0,1,4.408,0H20.932a4.4,4.4,0,0,1,4.4,4.4Z" transform="translate(21.672 177.082)" opacity="0.1"/>
    <path id="Path-48" data-name="Path" d="M16.809,0a21.059,21.059,0,0,1-4.614.624c-2.074-.029-11.772,4-11.772,4S-.972,7.8,1.305,7.544,4.692,6.172,6.3,6.172s6.656-.555,6.656-.555l4.874-3.592Z" transform="translate(16.407 181.753)" fill="#fbbebe"/>
    <path id="Path-49" data-name="Path" d="M11.965,11.379l-4.556.9-.3.059s-3.6-.959-3.724-1.039S0,6.811,0,6.811a6.562,6.562,0,0,0,2.954-.734,1.57,1.57,0,0,0,.137-.083,2.873,2.873,0,0,0,1.223-1.5c.022-.066.044-.134.064-.205a4.069,4.069,0,0,0-.039-1.956C3.9.47,4.918-.041,6.28,0a15.4,15.4,0,0,1,4.646,1.291,5.439,5.439,0,0,0,.421,1.817c.022.056.046.11.068.164a5.2,5.2,0,0,0,2.421,2.538l.144.071a4.849,4.849,0,0,0,.457.2C17.91,7.39,11.965,11.379,11.965,11.379Z" transform="translate(22.84 140.342)" fill="#fbbebe"/>
    <path id="Path-50" data-name="Path" d="M7.171,3.275A5.744,5.744,0,0,1,.079,4.5,3.864,3.864,0,0,0,.1,2.329C-.972-2.218,6.684,1.294,6.684,1.294a5.554,5.554,0,0,0,.487,1.981Z" transform="translate(27.087 140.337)" opacity="0.1"/>
    <path id="Path-51" data-name="Path" d="M11.489,5.757a5.744,5.744,0,0,1-5.395,5.732H5.747a5.744,5.744,0,1,1,5.742-5.732Z" transform="translate(24.214 133.815)" fill="#fbbebe"/>
    <path id="Path-52" data-name="Path" d="M11.965,5.563l-4.556.9-.3.059s-3.6-.959-3.724-1.039S0,1,0,1A6.562,6.562,0,0,0,2.954.262,1.57,1.57,0,0,0,3.091.179,5.355,5.355,0,0,0,6.979,1.89a5.61,5.61,0,0,0,.812-.066c.641-.1,1.286-.161,1.932-.227,1.235-.13,3.125-.5,4.116-1.6l.144.071a4.849,4.849,0,0,0,.457.2C17.91,1.575,11.965,5.563,11.965,5.563Z" transform="translate(22.84 146.158)" opacity="0.1"/>
    <path id="Path-53" data-name="Path" d="M22.5,17.145c.039.878.677,10.76.677,10.76H3.272l.134-6.228.108-4.981.037-1.634L3.71,9.4,3.135,8.9,0,6.14H0A14.971,14.971,0,0,0,.756,3.189C.638,2.834,2.272,1.394,2.829,1.316a7.388,7.388,0,0,0,.937-.286A12.154,12.154,0,0,1,6.1.3,14,14,0,0,0,8.336.21h0a5.331,5.331,0,0,0,4.028,1.846,5.272,5.272,0,0,0,.812-.064c.641-.1,1.286-.161,1.932-.227,1.3-.137,3.314-.543,4.26-1.766A6.084,6.084,0,0,1,20.7.286a7.808,7.808,0,0,0,1.956.269,9.953,9.953,0,0,1,1.516.558,10.547,10.547,0,0,0,1.435.558s.917.245,1.157,2.553.489,3.631.489,3.631L22.51,11.963S22.456,16.267,22.5,17.145Z" transform="translate(17.455 146.224)" fill="#9baaf8"/>
    <path id="Path-54" data-name="Path" d="M.717,3.389l.7,1.118,2.614.922L5.823,2.154,4.167,1.037,1.514,0,0,.878.717,3.389Z" transform="translate(16.739 166.878)" fill="#fbbebe"/>
    <path id="Path-55" data-name="Path" d="M.357,4.674s3.71-.281,5.226-2S10.926.047,10.926.047s9.214-1.078,5.585,7.06a2.358,2.358,0,0,1-.719,1.2c-.474.279-1.634,1-1.634,1L0,8.063Z" transform="translate(39.396 171.1)" fill="#65617d"/>
    <path id="Path-56" data-name="Path" d="M14.833,3.274A4.4,4.4,0,0,1,14.1,5.72c-2.382.213-7.657.709-8.759,1.015-1.357.377-4.1-.279-4.4-.352H.911s-.528-1.6-.78-2.631c-.115-.465-.171-.812-.1-.839.245-.078,2.445-.677,2.394-.34S9.008,0,9.008,0l.2,2.553C9.881,3.316,14.833,2.167,14.833,3.274Z" transform="translate(32.18 178.222)" opacity="0.1"/>
    <path id="Path-57" data-name="Path" d="M21.414,1.027l-.279,1.037A8.29,8.29,0,0,1,18.9,3.817c-1.316.68-3.629,1.795-3.629,1.795s-8.5.719-9.933,1.118S.912,6.38.912,6.38-.206,2.991.034,2.91s2.433-.677,2.394-.337S9.008,0,9.008,0Z" transform="translate(32.419 178.337)" fill="#65617d"/>
    <path id="Path-58" data-name="Path" d="M0,3.852a35.8,35.8,0,0,1,5.17.672c.993.379,8.087-.147,8.087-.147a39.33,39.33,0,0,1,5.9.489c1.313.4.846-4.015-1.577-4.512A17.388,17.388,0,0,0,11.738.6L7.417.02C6.95-.039,3.871.05,3.871.05Z" transform="translate(30.179 184.452)" fill="#fbbebe"/>
    <path id="Path-59" data-name="Path" d="M0,0S5.519.489,7.035,1.4Z" transform="translate(13.77 177.297)" opacity="0.1"/>
    <path id="Path-60" data-name="Path" d="M6.013,0S1.692,1.052,0,2.6Z" transform="translate(42.181 173.676)" opacity="0.1"/>
    <path id="Path-61" data-name="Path" d="M0,0C.088.029,2.541.352,2.482.584S0,0,0,0Z" transform="translate(14.09 176.041)" opacity="0.1"/>
    <path id="Path-62" data-name="Path" d="M0,2.472l.318,1.2a5.081,5.081,0,0,1,.878.839c.159.281,1.078.357,1.078.357a6.811,6.811,0,0,1,1.2.68A19.842,19.842,0,0,0,8.735,6.859c2.433.32,6.94.917,7.9,1.223a11.435,11.435,0,0,0,2.074.44s1.795.956,2.751.717,2.592-4.585,2.592-4.585-6.3-1.467-6.5-1.956S11.283,0,11.283,0L7.693.086Z" transform="translate(10.237 179.723)" opacity="0.1"/>
    <path id="Path-63" data-name="Path" d="M0,4.509l.32,1.2a5.15,5.15,0,0,1,.875.836c.161.281,1.078.359,1.078.359a6.811,6.811,0,0,1,1.2.68A19.842,19.842,0,0,0,8.735,8.9c2.433.32,6.94.917,7.9,1.223a11.435,11.435,0,0,0,2.074.44s1.795.956,2.751.717,2.595-4.585,2.595-4.585-6.3-1.467-6.5-1.956S8.456.626,8.456.626L5.654,0Z" transform="translate(9.997 177.806)" fill="#65617d"/>
    <path id="Path-64" data-name="Path" d="M3.81,0l-.7.4L1.768,9.574s-.712.677-.489,1.115a1.923,1.923,0,0,1-.042,1.2s-1.2.518-.934.836a1.371,1.371,0,0,1-.039,1.316c-.183.4-.489,1.118,0,1.237s.083,1.675.083,1.675,1.682-.191,1.56.8c-.051.4,1.9,1.675,1.9,1.675s-2.22-4.03,2.754-3.47l.428-2.269s.428-1.279,0-1.678.1-2.294.1-2.294l.093-8.236Z" transform="translate(14.342 151.961)" fill="#9baaf8"/>
    <path id="Path-65" data-name="Path" d="M0,0C.088.144,2.773.443,2.949.922S0,0,0,0Z" transform="translate(17.069 163.809)" opacity="0.1"/>
    <path id="Path-66" data-name="Path" d="M0,.959S.364-.181,1.223.025,0,.959,0,.959Z" transform="translate(16.223 165.126)" opacity="0.1"/>
    <path id="Path-67" data-name="Path" d="M0,1.407S.643-.109,1.519.006,0,1.407,0,1.407Z" transform="translate(15.756 166.341)" opacity="0.1"/>
    <path id="Path-68" data-name="Path" d="M7.779,1.876,7.5,3.551S4.617,8.816,4.108,8.9.758,5.385.758,5.385L0,1.876l2.983-.565L4.309,0S7.659.32,7.779,1.876Z" transform="translate(37.2 165.841)" fill="#fbbebe"/>
    <path id="Path-69" data-name="Path" d="M4.233.7l1.078.758V5.483s.836-.081.636.359-.6.677-.245,1.076.279,1.157-.042,1.237-.878.4-.357.6.836.56.836.8a1.438,1.438,0,0,1-.159.875c-.2.281-.4.919-.159,1.157s-.2,1.467-.2,1.467.758,1.956.039,2.514c0,0-.318,1.115-.357,1.2,0,0,.5-3.883-4.517-2.24L.66,12.491c-.034-.548.433-.709.176-1.034s-.9-1.078-.6-1.277.2-.56.081-.839-.543-.279-.161-.619.609-.658.384-.817-.614-.68-.3-.917.32-3.71.32-3.71S1.838-1.817,4.233.7Z" transform="translate(39.389 152.621)" fill="#9baaf8"/>
    <path id="Path-70" data-name="Path" d="M0,.185s1.533-.416,1.585,0S0,.185,0,.185Z" transform="translate(43.115 159.995)" opacity="0.1"/>
    <path id="Path-71" data-name="Path" d="M0,.273S2.1-.253,2.365.155,0,.273,0,.273Z" transform="translate(41.391 161.054)" opacity="0.1"/>
    <path id="Path-72" data-name="Path" d="M0,.145S3.155-.292,3.358.351,0,.145,0,.145Z" transform="translate(40.924 162.289)" opacity="0.1"/>
    <path id="Path-73" data-name="Path" d="M0,0C.117.027,3.037.245,3.1.787S0,0,0,0Z" transform="translate(41.391 163.809)" opacity="0.1"/>
    <rect id="Rectangle-14" data-name="Rectangle" width="25.004" height="14.203" rx="7.101" transform="translate(17.935 165.604)" fill="#3f3d56"/>
    <circle id="Oval-13" data-name="Oval" cx="0.922" cy="0.922" r="0.922" transform="translate(29.516 171.783)" fill="#e7effd"/>
    <path id="Path-74" data-name="Path" d="M0,0S2.4,1.832,4.248.435C4.248.428,1.108.721,0,0Z" transform="translate(22.124 156.9)" opacity="0.1"/>
    <path id="Path-75" data-name="Path" d="M0,0S2.4,1.832,4.25.435C4.25.435,1.118.719,0,0Z" transform="translate(34.258 157.394)" opacity="0.1"/>
    <path id="Path-76" data-name="Path" d="M16.611,5.717a5.727,5.727,0,0,1-.868,3.04,8.769,8.769,0,0,0-1.3-4.536C13.65,3,11.229.851,9.556,1.45a1.188,1.188,0,0,0-.734.783c-.164.626.32.888.628,1.387a4.253,4.253,0,0,1,.582,2.866,3.565,3.565,0,0,1-.086.4c-.262.978-.861,2.11-.245,2.917.433.562,1.36.756,1.487,1.455a.885.885,0,0,1,0,.2c-.029.47-.43.885-.6,1.345a2.2,2.2,0,0,0,.122,1.629,10.672,10.672,0,0,1,.827,2.184,4.3,4.3,0,0,1-.4,2.159,9.6,9.6,0,0,0-.66,2.03c-.191,1.325.293,2.859-.54,3.913a.572.572,0,0,1-.364.245c-.536.056-.443-.9-.873-1.223A3.778,3.778,0,0,1,8.585,25.4a1.284,1.284,0,0,1-1.284.878c-.064-.418-.127-.836-.188-1.254a3.651,3.651,0,0,1-1.33.831A9.713,9.713,0,0,1,7.169,22.1a7.466,7.466,0,0,0-2.954,3.517,4.533,4.533,0,0,0-.768,2.763c.064.391.245.763.269,1.157a.982.982,0,0,1-.472,1.005.858.858,0,0,1-.927-.286L2.278,30.2l-.064-.088a1.45,1.45,0,0,1-.105-.191,3.59,3.59,0,0,1-.225-.734l-.027-.108a13.04,13.04,0,0,1-.433-4.962A9.271,9.271,0,0,0,1.687,22.3a3.35,3.35,0,0,0-.208-1.02c-.325-.912-.954-1.751-1.311-2.668a.078.078,0,0,1,0-.022A1.464,1.464,0,0,1,.234,17.1a2.974,2.974,0,0,1,.665-.45,3,3,0,0,0,1.132-2.13,7.177,7.177,0,0,0,.088-1.12,12.155,12.155,0,0,1,2.335-.734,14,14,0,0,0,2.235-.086A2.915,2.915,0,0,0,8.059,11c.022-.066.044-.134.064-.205a5.744,5.744,0,1,1,8.488-5.074Z" transform="translate(19.092 133.855)" opacity="0.1"/>
    <path id="Path-77" data-name="Path" d="M9.956,13.06c-.262.978-.861,2.11-.245,2.917.433.562,1.36.756,1.487,1.455.1.553-.394,1.017-.592,1.543-.474,1.252.761,2.485.946,3.81.205,1.44-.844,2.751-1.054,4.189-.191,1.325.293,2.859-.54,3.913a.584.584,0,0,1-.364.245c-.536.056-.445-.9-.873-1.223a3.734,3.734,0,0,1-.115,1.663,1.281,1.281,0,0,1-1.284.878l-.188-1.254a3.651,3.651,0,0,1-1.33.831A9.725,9.725,0,0,1,7.19,28.273a7.466,7.466,0,0,0-2.954,3.517,4.53,4.53,0,0,0-.768,2.761c.064.394.245.765.269,1.159a.982.982,0,0,1-.472,1.005.873.873,0,0,1-.978-.333,2.509,2.509,0,0,1-.394-1.015,13.31,13.31,0,0,1-.46-5.069A9.271,9.271,0,0,0,1.7,28.473C1.646,27.126.653,26.028.167,24.766a1.468,1.468,0,0,1,.068-1.487,3.015,3.015,0,0,1,.668-.45A3.016,3.016,0,0,0,2.035,20.7a7.388,7.388,0,0,0-.076-2.663c-.281-1.313-.922-2.592-.763-3.913s1.054-2.389,1.656-3.563a8.42,8.42,0,0,0,.856-4.928c-.105-.785-.286-1.7.245-2.284.641-.7,1.881-.44,2.612-1.052a5.163,5.163,0,0,0,.795-1.14A2.79,2.79,0,0,1,10.34.094c.5.144.954.43,1.45.592a11.436,11.436,0,0,0,2.189.286,2.661,2.661,0,0,1,1.927.939c.225.32.325.714.531,1.047.44.714,1.281,1.056,1.917,1.6A3.724,3.724,0,0,1,19.4,8.536c-.379,1.059-1.257,1.993-1.184,3.113a6.754,6.754,0,0,1,.164,1.369c-.176,1.272-2.02,1.523-2.658,2.639a9.1,9.1,0,0,0-1.3-5.236c-.8-1.223-3.218-3.37-4.891-2.773a1.188,1.188,0,0,0-.734.783c-.164.626.318.888.628,1.387a4.221,4.221,0,0,1,.526,3.243Z" transform="translate(19.089 127.437)" fill="#3f3d56"/>
    <g id="Group" transform="translate(19.074 131.563)" opacity="0.2">
      <path id="Path-78" data-name="Path" d="M.946,5.04A7.419,7.419,0,0,0,.787,3.328,20.2,20.2,0,0,1,0,0,14.79,14.79,0,0,0,.787,3.688,7.336,7.336,0,0,1,.946,5.04Z" transform="translate(1.201 10.21)"/>
      <path id="Path-79" data-name="Path" d="M3.447.526c.1-.179.2-.355.306-.526C2.349.675,1.53,2.14.8,3.517A4.913,4.913,0,0,0,.006,6.065,5.886,5.886,0,0,1,.8,3.864,8.139,8.139,0,0,1,3.447.526Z" transform="translate(3.454 23.789)"/>
      <path id="Path-80" data-name="Path" d="M2.4,4.267a.853.853,0,0,1-.467.7.875.875,0,0,1-.978-.335A2.548,2.548,0,0,1,.557,3.622,18.128,18.128,0,0,1,0,0,16.032,16.032,0,0,0,.557,3.981,2.548,2.548,0,0,0,.951,4.994a.871.871,0,0,0,.978.333A.963.963,0,0,0,2.4,4.321Z" transform="translate(1.353 27.261)"/>
      <path id="Path-81" data-name="Path" d="M.642,0a3.852,3.852,0,0,1-.13.849,7.1,7.1,0,0,0-.5,2.233,12.191,12.191,0,0,1,.5-1.876A4,4,0,0,0,.642,0Z" transform="translate(9.458 7.735)"/>
      <path id="Path-82" data-name="Path" d="M.21,2.235A8.18,8.18,0,0,0,.142.963C.1.653.049.323.032,0a7.3,7.3,0,0,0,.11,1.323,8.131,8.131,0,0,1,.068.912Z" transform="translate(3.595 0.174)"/>
      <path id="Path-83" data-name="Path" d="M.692.027V0A9.44,9.44,0,0,1,.108,1.21a1.692,1.692,0,0,0-.1.78,1.543,1.543,0,0,1,.1-.421C.3,1.044.79.58.692.027Z" transform="translate(10.522 13.286)"/>
      <path id="Path-84" data-name="Path" d="M1.69,4.321C1.641,2.974.648,1.876.164.614A2.384,2.384,0,0,1,.008,0,2.042,2.042,0,0,0,.164.978C.653,2.213,1.607,3.3,1.685,4.619,1.69,4.517,1.693,4.419,1.69,4.321Z" transform="translate(0.034 19.666)"/>
      <path id="Path-85" data-name="Path" d="M5.658,2.876C4.861,1.653,2.438-.494.768.1A1.179,1.179,0,0,0,.034.885a.858.858,0,0,0-.015.421.448.448,0,0,1,.015-.061A1.179,1.179,0,0,1,.768.462c1.665-.6,4.089,1.548,4.891,2.773a8.852,8.852,0,0,1,1.3,4.717A9.049,9.049,0,0,0,5.658,2.876Z" transform="translate(8.801 3.047)"/>
      <path id="Path-86" data-name="Path" d="M2.653.017C2.48,1.286.641,1.541,0,2.648v.367C.638,1.9,2.482,1.648,2.658.377a1.616,1.616,0,0,0,0-.377A.1.1,0,0,1,2.653.017Z" transform="translate(15.758 8.503)"/>
      <path id="Path-87" data-name="Path" d="M1.188,1.008C.809,2.064-.069,3,0,4.121v.049c.081-.978.834-1.846,1.176-2.8A3.453,3.453,0,0,0,1.376,0a3.392,3.392,0,0,1-.188,1.008Z" transform="translate(18.243 3.032)"/>
      <path id="Path-88" data-name="Path" d="M1.237,1.775a.58.58,0,0,1-.364.245C.337,2.076.43,1.115,0,.8c0,.127.02.245.027.384.4.345.325,1.257.846,1.2a.58.58,0,0,0,.364-.245A3.138,3.138,0,0,0,1.748,0,2.817,2.817,0,0,1,1.237,1.775Z" transform="translate(8.737 24.628)"/>
      <path id="Path-89" data-name="Path" d="M2.8.775a1.264,1.264,0,0,1-1.281.878L1.33.4a3.641,3.641,0,0,1-1.262.807C.044,1.333.02,1.462,0,1.59A3.651,3.651,0,0,0,1.33.758l.191,1.254A1.275,1.275,0,0,0,2.8,1.135,2.817,2.817,0,0,0,2.952,0,2.384,2.384,0,0,1,2.8.775Z" transform="translate(5.82 26.31)"/>
      <path id="Path-90" data-name="Path" d="M.052,3.629A6.317,6.317,0,0,0,0,4.644a4.805,4.805,0,0,1,.049-.655C.25,2.617,1.211,1.36,1.126,0,1.05,1.225.236,2.379.052,3.629Z" transform="translate(10.463 18.869)"/>
    </g>
    <path id="Path-91" data-name="Path" d="M63.275,2.565V26.574a2.545,2.545,0,0,1-2.732,2.3H2.732A2.545,2.545,0,0,1,0,26.574V2.565A2.752,2.752,0,0,1,2.732,0H60.544A2.752,2.752,0,0,1,63.275,2.565Z" transform="translate(117.686 47.774)" fill="#fff"/>
    <path id="Path-92" data-name="Path" d="M63.275,2.732v6.7H0v-6.7A2.732,2.732,0,0,1,2.732,0H60.544a2.732,2.732,0,0,1,2.732,2.732Z" transform="translate(117.686 47.774)" fill="#9baaf8" opacity="0.2"/>
    <circle id="Oval-14" data-name="Oval" cx="1.827" cy="1.827" r="1.827" transform="translate(119.329 50.662)" fill="#fff"/>
    <circle id="Oval-15" data-name="Oval" cx="1.827" cy="1.827" r="1.827" transform="translate(124.643 50.662)" fill="#fff"/>
    <circle id="Oval-16" data-name="Oval" cx="1.827" cy="1.827" r="1.827" transform="translate(129.957 50.662)" fill="#fff"/>
    <circle id="Oval-17" data-name="Oval" cx="7.141" cy="7.141" r="7.141" transform="translate(161.358 59.629)" fill="#9baaf8"/>
    <rect id="Rectangle-15" data-name="Rectangle" width="30.113" height="1.064" transform="translate(153.266 63.026) rotate(180)" fill="#9baaf8"/>
    <rect id="Rectangle-16" data-name="Rectangle" width="30.113" height="1.064" transform="translate(153.266 65.618) rotate(180)" fill="#9baaf8" opacity="0.2"/>
    <rect id="Rectangle-17" data-name="Rectangle" width="30.113" height="1.064" transform="translate(153.266 68.21) rotate(180)" fill="#9baaf8" opacity="0.2"/>
    <rect id="Rectangle-18" data-name="Rectangle" width="30.113" height="1.064" transform="translate(153.266 70.797) rotate(180)" fill="#9baaf8" opacity="0.2"/>
    <path id="Shape-2" data-name="Shape" d="M3.39,73.843a5.171,5.171,0,0,1-2.815-.72A1.14,1.14,0,0,1,0,72.312a1.573,1.573,0,0,1,.536-1.163A3.12,3.12,0,0,1,2.38,70.2c1.024,0,5.1-4.822,5.38-5.519.039-.1.091-.153.157-.153s.168.069.275.206a12.411,12.411,0,0,0,.881-2.673c-.284-.072-.523-.136-.707-.19l-.009,0v-.008c-.006-.259-.02-1.557.326-1.7h.012c.366-.218.37-3.4.37-3.436a16.97,16.97,0,0,0,.76-3.864c-.1-.925,1.788-7.493,2.167-8.8l.006-.02c.025-.192.63-4.707,1.685-5.168.993-.433,9.974-2.984,11-3.273l.046-.014a1.644,1.644,0,0,1,1.622-.843h.3c4.97,0,5.916-1.093,6.226-1.453a2.991,2.991,0,0,0,.4-.651,5.645,5.645,0,0,1-.455-3.595,9.084,9.084,0,0,0,.543-1.934v-.014a35.3,35.3,0,0,1,.382-3.911c.214-.792,1.128-7.351,1.138-7.417a11.631,11.631,0,0,1,3.147-2.182,5.387,5.387,0,0,0,1.582-.826l-.012-.056c0-.017-.007-.033-.01-.049l0-.011,0-.016-.005-.032-.009-.048c0-.015-.006-.029-.008-.042s0-.017,0-.023l0-.016A4.9,4.9,0,0,1,37.9,9.7a.829.829,0,0,1-.054-.184c-.008-.095-.013-.177-.013-.245a4.577,4.577,0,0,1-.026-.472V8.7a.687.687,0,0,0-.091-.215,1.15,1.15,0,0,0-.6-.355l-.026-.009c-.089-.032-.181-.064-.266-.1a.982.982,0,0,1-.138-.071l-.041-.027-.083-.057-.047-.039-.068-.057L36.4,7.718l-.056-.059a.339.339,0,0,1-.029-.034.168.168,0,0,0-.015-.02l-.049-.061-.04-.058-.039-.064a.65.65,0,0,1-.04-.066l0-.006,0-.005-.006-.013c-.006-.012-.013-.024-.019-.037a.16.16,0,0,0-.013-.021.115.115,0,0,1-.022-.053c-.007-.019-.015-.038-.024-.056a.253.253,0,0,0-.014-.032.117.117,0,0,1-.018-.053L36,7.036l0-.008,0-.007,0-.01,0-.011,0-.007a.16.16,0,0,1-.015-.058,2.612,2.612,0,0,1-.074-.858c0-.066.012-.137.024-.216.024-.154.059-.313.089-.45l0-.008,0-.008,0-.012a3.14,3.14,0,0,0,.105-1.018l-.022-.13V4.221a1.208,1.208,0,0,0-.037-.131,2.467,2.467,0,0,0-.114-.266l0-.01a2.171,2.171,0,0,1-.126-.3,1.1,1.1,0,0,1-.029-.125.109.109,0,0,1,0-.034.362.362,0,0,1-.013-.1V3.228a1.349,1.349,0,0,1,.02-.271,1.78,1.78,0,0,1,.59-1A4.569,4.569,0,0,1,38,1.159,18.605,18.605,0,0,1,42.611.094c.117-.008.24-.02.378-.034l.052-.005.015,0,.023,0A7.056,7.056,0,0,1,43.794,0a1.509,1.509,0,0,1,.962.26l.1.078L45,.455A6.243,6.243,0,0,0,46.61,1.465c.766.321,1.21.727,1.318,1.206a4.98,4.98,0,0,1,.027.788,3.637,3.637,0,0,0,.281,1.074l.006.015,0,.005c.05.131.108.283.156.434a2.3,2.3,0,0,1,.122.922v.014a.5.5,0,0,1-.007.054l0,.011V6a.219.219,0,0,0,0,.035v.02a1.147,1.147,0,0,1-.071.23.135.135,0,0,1-.012.027c-.013.027-.025.054-.04.081l-.017.029a.919.919,0,0,1-.066.1,1.5,1.5,0,0,1-.141.166l-.009.01-.009.01a1.427,1.427,0,0,0-.171.2,1.538,1.538,0,0,0-.188.711l-.023.225-.012.113v.013l-.016.157-.005.053-.008.074v.005c0,.019,0,.039-.006.058s0,.04-.006.058,0,.038,0,.056a3.246,3.246,0,0,1,.012.337,5.062,5.062,0,0,1-.061.776,3.58,3.58,0,0,1,1.223,1.279.62.62,0,0,1,.132.365,2.575,2.575,0,0,0,1.372.232,13.381,13.381,0,0,0,1.345-.074,5.883,5.883,0,0,0,2.049.676.781.781,0,0,0,.4-.086.29.29,0,0,1,.147-.032c.941,0,4.383,2.639,4.418,2.666.105.007,1.035.084,1.086.49a4.849,4.849,0,0,0,2.284.978c.947,0,1.55,1.184,1.575,1.235a17.551,17.551,0,0,0,2.174.86c.461.092,1.181.488,1.241.735a.118.118,0,0,1-.045.126.253.253,0,0,0-.1.207,1.438,1.438,0,0,0,.642.867,3.353,3.353,0,0,1,.842,2.2.437.437,0,0,1-.243.382c-.246.1-.65.239-1.078.384l-.049.017-.049.017-.012,0-.005,0-.015.005-.015.005a15.235,15.235,0,0,0-1.711.642,1.1,1.1,0,0,1-.5.12c-.037,0-.075,0-.112-.005s-.067,0-.1,0a1.566,1.566,0,0,1-.6-.118l-.073-.1A4.8,4.8,0,0,1,61.61,24.69c-1.322.136-4.253.7-5.12.863v.215c.014,1.453-.03,4-.47,4.724-.813,1.339-.923,11.775-.924,11.88-.025,0-2.569.39-3.424,1.182a7.406,7.406,0,0,1-3.937,1.231,1.873,1.873,0,0,1-1.878-.885l-.262.112c-2.221.966-4.935,2.239-5.251,2.82-.516.962-4.235,2.564-4.272,2.58a2.28,2.28,0,0,0-1.619.732,1.731,1.731,0,0,0-.119,1.579c.2.643.006,1.979-2.072,4.69a35.837,35.837,0,0,1-2.6,3,1.48,1.48,0,0,1-.543,1.184,4.436,4.436,0,0,1-1.673.6,3.869,3.869,0,0,0-.339.9c.021.06-.3.36-.58.6a12.556,12.556,0,0,1-.932,1.712,1.391,1.391,0,0,1-.49.489c-.155.063-.764.4-1.409.764l-.074.041-.025.014-.007,0,0,0-.011.006c-1.8,1.008-4.819,2.694-5.546,2.77-.1.01-.2.023-.3.036l-.053.007-.018,0h-.006a9.851,9.851,0,0,1-1.364.113,4.589,4.589,0,0,1-2.932-.957L13.633,70l.093.76-.013.006a15.8,15.8,0,0,1-3.9,1.123c-1.033,0-4.341,1.52-4.993,1.824l-.005,0A8.047,8.047,0,0,1,3.39,73.843Zm9.67-11.14c-.185,1.493-.314,2.66-.4,3.569a4.757,4.757,0,0,1,2.132-2A19.5,19.5,0,0,1,17,63.153c.031-.007,3.052-.729,3.694-1.315a20.875,20.875,0,0,1,2.583-1.683c.287-.255.6-.544.9-.817l.023-.02.055-.05a3.629,3.629,0,0,1-.037-.4,6.288,6.288,0,0,1,.286-.822,1.606,1.606,0,0,1,.474-.685c.443-.275,1.9-5.86,1.9-6.449a19.19,19.19,0,0,1,1.252-4.248,10.515,10.515,0,0,0,.706-1.882h-.013a50.294,50.294,0,0,1-6.494.456c-1.1,0-2.133-.045-3.057-.132-.009,0-1,.381-1.193.844a.364.364,0,0,0,0,.3,2.5,2.5,0,0,1,.006,1.635c-.014.021-.028.032-.041.032-.035,0-.1.057-.166.153a1.942,1.942,0,0,0-.236,1.674c.175.516-.433,3.162-1.072,5.4-.62,2.17-1.551,4.929-2.134,5.563a.829.829,0,0,1,.02.081,1.856,1.856,0,0,1-.208,1.445,1.311,1.311,0,0,1-1.015.463ZM35.393,23.709l-.066.792c.044-.243.072-.41.086-.488Zm24.723-3.09h0a.913.913,0,0,0-.3.081c-.131.062-.264.118-.4.167l.949-.162v.017a.452.452,0,0,1,.1-.026,1.659,1.659,0,0,0-.355-.076Z" transform="translate(64.163 25.649)" fill="url(#linear-gradient-2)"/>
    <path id="Path-93" data-name="Path" d="M6,1.63A20.588,20.588,0,0,0,4.962,4.049,21.24,21.24,0,0,1,2.614,6.13L0,4.261.267,2.982S3.2.339,3.414.033,6,1.63,6,1.63Z" transform="translate(86.458 83.558)" fill="#be6f72"/>
    <path id="Path-94" data-name="Path" d="M.352,7.16C2.167,8.921,4.3,8.383,5.314,8.28S11.741,4.92,12.262,4.7a1.384,1.384,0,0,0,.474-.489h0a12.21,12.21,0,0,0,.917-1.692c-.037,0-1.81.516-2.257,0,0,0-.748-.917-.907-.917S10.477,0,10.477,0A20.783,20.783,0,0,0,7.928,1.66C7.288,2.247,4.3,2.966,4.3,2.966A18.323,18.323,0,0,0,2.155,4.074C.739,4.942-.677,6.16.352,7.16Z" transform="translate(77.197 85.665)" fill="#3f3d56"/>
    <path id="Path-95" data-name="Path" d="M.352,3.1C2.167,4.857,4.3,4.319,5.314,4.216S11.741.856,12.262.641a1.384,1.384,0,0,0,.474-.489C12.105-.225,7.982,2.4,6.828,2.876S2.754,3.091,1.1,2.387C.274,2.042,1.1.978,2.155,0,.739.878-.677,2.1.352,3.1Z" transform="translate(77.197 89.73)" opacity="0.1"/>
    <path id="Path-96" data-name="Path" d="M5.336.775s-.761,5.708-.567,6.456S0,4.671,0,4.671,1.736,1.093,1.223.269,5.336.775,5.336.775Z" transform="translate(72.428 86.501)" fill="#be6f72"/>
    <path id="Path-97" data-name="Path" d="M0,27.3a19.156,19.156,0,0,0,4.8.8C6.3,28.01,6.074,26.567,6,26.21a.69.69,0,0,0-.02-.081c1.069-1.174,3.468-9.921,3.147-10.882a1.728,1.728,0,0,1,.394-1.812,2.185,2.185,0,0,0,.034-1.656c-.267-.587,1.174-1.12,1.174-1.12a43.909,43.909,0,0,0,9.388-.325,10.979,10.979,0,0,1-.694,1.873A19.066,19.066,0,0,0,18.2,16.421c0,.641-1.44,6.136-1.866,6.4a1.594,1.594,0,0,0-.465.677,6.388,6.388,0,0,0-.281.814c.159,3.575,4.213,2.189,4.8,1.712a1.563,1.563,0,0,0,.227-.232,1.484,1.484,0,0,0,.306-.941s5.28-5.38,4.588-7.627,1.712-2.294,1.712-2.294,3.68-1.6,4.191-2.56c.315-.589,3.076-1.885,5.155-2.8C37.865,9,38.9,8.6,38.9,8.6l-.866-3.1-.682-2.445-1.284-.489-4.1-1.546L24.6,0l-.675.088-7.16.924S6.3,3.988,5.24,4.46,3.587,9.6,3.587,9.6s-2.24,7.735-2.135,8.752A16.278,16.278,0,0,1,.7,22.168s0,3.179-.362,3.406H.323C-.049,25.75,0,27.3,0,27.3Z" transform="translate(73.013 60.086)" fill="#3f3d56"/>
    <path id="Path-98" data-name="Path" d="M0,4.216A43.909,43.909,0,0,0,9.388,3.89c.32-1.008,4.8-3.781,4.8-3.781C10.513-.8,0,4.216,0,4.216Z" transform="translate(83.738 66.525)" opacity="0.1"/>
    <path id="Path-99" data-name="Path" d="M0,.809C.159,4.385,4.213,3,4.8,2.521a1.563,1.563,0,0,0,.227-.232C3.609,2.812,1.1,3.213.281,0A6.387,6.387,0,0,0,0,.809Z" transform="translate(88.592 83.587)" fill="#444053"/>
    <path id="Path-100" data-name="Path" d="M0,1.714a19.156,19.156,0,0,0,4.8.8C6.3,2.421,6.074.978,6,.621A27.784,27.784,0,0,1,.335,0H.323C-.049.161,0,1.714,0,1.714Z" transform="translate(73.013 85.675)" fill="#444053"/>
    <path id="Path-101" data-name="Path" d="M0,.809C.159,4.385,4.213,3,4.8,2.521a1.563,1.563,0,0,0,.227-.232C3.609,2.812,1.1,3.213.281,0A6.387,6.387,0,0,0,0,.809Z" transform="translate(88.592 83.587)" opacity="0.1"/>
    <path id="Path-102" data-name="Path" d="M0,1.714a19.156,19.156,0,0,0,4.8.8C6.3,2.421,6.074.978,6,.621A27.784,27.784,0,0,1,.335,0H.323C-.049.161,0,1.714,0,1.714Z" transform="translate(73.013 85.675)" opacity="0.1"/>
    <path id="Path-103" data-name="Path" d="M.566,8.513A6.207,6.207,0,0,0,4.723,9.1S8.509,7.286,9.629,7.286a16.54,16.54,0,0,0,3.847-1.113l-.093-.756L12.942,1.8s-4.157-.105-4.321-.489c0,0-.748-1.837-1.015-1.159S3.339,5.63,2.327,5.63a3.045,3.045,0,0,0-1.807.939C-.055,7.166-.3,7.926.566,8.513Z" transform="translate(64.822 90.02)" fill="#3f3d56"/>
    <path id="Path-104" data-name="Path" d="M0,0S3.468,2.2,2.507,2.668,0,0,0,0Z" transform="translate(79.738 67.007)" opacity="0.1"/>
    <path id="Path-105" data-name="Path" d="M0,0S2.986,2.834,1.866,2.91,0,0,0,0Z" transform="translate(78.297 71.223)" opacity="0.1"/>
    <path id="Path-106" data-name="Path" d="M0,0S1.516,2.851.944,3.345,0,0,0,0Z" transform="translate(75.096 80.237)" opacity="0.1"/>
    <path id="Path-107" data-name="Path" d="M.036,1.873C-.5,2.406,5.105.112,3.824,0S.036,1.873.036,1.873Z" transform="translate(91.755 81.245)" opacity="0.1"/>
    <path id="Path-108" data-name="Path" d="M0,7.236l.179-.027c.663-.1,3.069-.477,5.226-.946.526-.115,1.034-.232,1.5-.357,1.653-.433,2.761-.9,2.057-1.281A3.778,3.778,0,0,1,7.273,2.4c-.024-.078-.049-.154-.068-.227A5.847,5.847,0,0,1,6.987.949S.961-1.186,2.135.949a2.023,2.023,0,0,1-.357,2.5,4.666,4.666,0,0,1-1.3.978Z" transform="translate(102.994 35.874)" fill="#be6f72"/>
    <path id="Path-109" data-name="Path" d="M13.153,0A4.238,4.238,0,0,1,8.8.267c-2.2-1.281-5.072,11.31-5.072,11.31L.735,18.937s-1.934,1.6.472,2.294,7.752-.694,9.107,1.333A5.9,5.9,0,0,0,14.483,24.9c.245,0,1.279-7.63,1.279-7.63l.264-11.041Z" transform="translate(96.294 41.457)" opacity="0.1"/>
    <path id="Path-110" data-name="Path" d="M1.208,21.229c2.409.694,7.75-.692,9.107,1.333a5.214,5.214,0,0,0,2.294,1.849A6,6,0,0,0,14.5,24.9c.034,0,.086-.139.144-.381.374-1.543,1.135-7.246,1.135-7.246l.264-11.019L13.509.761,13.164,0a4.614,4.614,0,0,1-1.1.533A3.869,3.869,0,0,1,8.8.267C8.158-.11,7.454.709,6.781,2.052a56.047,56.047,0,0,0-3.059,9.522L.736,18.935a2.568,2.568,0,0,0-.2.2C.108,19.576-.687,20.681,1.208,21.229Z" transform="translate(96.391 41.032)" fill="#f3f5f9"/>
    <path id="Path-111" data-name="Path" d="M.792,24.567a13.9,13.9,0,0,0-.071,2.81,32.952,32.952,0,0,0,.489,3.966,1.467,1.467,0,0,0,.066.245c1.3-.57,2.335-.978,2.335-.978l-.866-3.1c.374-1.543,1.135-7.246,1.135-7.246L4.162,9.219,1.626,3.727c1.653-.433,2.761-.9,2.057-1.281A3.912,3.912,0,0,1,1.925,0,9.068,9.068,0,0,1,.408,1.631l-.034.027L.183,3.519l-.059.572L0,5.28S.587,19.307,1.015,20.109s.213,2.345-.161,4.157C.834,24.351.814,24.457.792,24.567Z" transform="translate(108.273 38.065)" opacity="0.1"/>
    <path id="Path-112" data-name="Path" d="M.829,27.43A21.814,21.814,0,0,0,1.2,34.522c.426,2.291,4.962.8,5.815,0s3.36-1.174,3.36-1.174.108-10.454.907-11.789c.379-.631.472-2.69.462-4.69,0-1.79-.1-3.524-.13-4.113v-.21s3.468-5.869,3.424-6.294-1.066-.489-1.066-.489S10.131,2.773,9.491,3.147s-2.4-.587-2.4-.587S4.861,2.8,4.4,2.384a.245.245,0,0,1-.081-.2C4.372,1.5,2.047.046,1.976,0,3.932,1.766.753,4.482.406,4.778l-.034.029L0,8.427S.587,22.456,1.012,23.256,1.2,25.616.829,27.43Z" transform="translate(108.513 34.671)" fill="#67647e"/>
    <circle id="Oval-18" data-name="Oval" cx="0.267" cy="0.267" r="0.267" transform="translate(109.281 46.595)" fill="#444053"/>
    <path id="Path-113" data-name="Path" d="M0,4.778,1.619,6.346,4,2.382a.245.245,0,0,1-.083-.2C3.966,1.5,1.641.044,1.568,0,3.529,1.763.359,4.48,0,4.778Z" transform="translate(109.002 34.899)" opacity="0.1"/>
    <circle id="Oval-19" data-name="Oval" cx="0.267" cy="0.267" r="0.267" transform="translate(109.814 55.129)" opacity="0.1"/>
    <circle id="Oval-20" data-name="Oval" cx="0.267" cy="0.267" r="0.267" transform="translate(109.814 55.022)" fill="#444053"/>
    <path id="Path-114" data-name="Path" d="M0,4.778l1.621,1.57L4,2.384a.245.245,0,0,1-.081-.2C3.966,1.5,1.641.046,1.57,0,3.529,1.768.359,4.485,0,4.778Z" transform="translate(108.894 34.681)" fill="#67647e"/>
    <rect id="Rectangle-19" data-name="Rectangle" width="3.712" height="7.845" rx="1.7" transform="matrix(-1, -0.023, 0.023, -1, 110.926, 54.476)" fill="#3f3d56"/>
    <rect id="Rectangle-20" data-name="Rectangle" width="3.712" height="7.845" rx="1.7" transform="matrix(-1, -0.023, 0.023, -1, 110.926, 54.476)" opacity="0.1"/>
    <rect id="Rectangle-21" data-name="Rectangle" width="3.712" height="7.845" rx="1.7" transform="matrix(-1, -0.023, 0.023, -1, 110.948, 54.649)" fill="#3f3d56"/>
    <circle id="Oval-21" data-name="Oval" cx="0.584" cy="0.584" r="0.584" transform="translate(108.691 48.48)" fill="#67647e"/>
    <path id="Path-115" data-name="Path" d="M0,23.447c1.333.587,10.08-.959,11.361-1.333s3.147-3.255,2.24-5.333a4.863,4.863,0,0,1,.32-4.108s1.92-4.106,2.345-4.908a37.527,37.527,0,0,0,1.44-3.519A.313.313,0,0,0,17.631,4a9.32,9.32,0,0,0-1.682-1.467c-.377.137-.426-.941-.411-1.736,0-.443.037-.8.037-.8s-.179.181-.467.426c-.105.088-.225.188-.359.289a5.517,5.517,0,0,1-1.68.919A10.661,10.661,0,0,0,9.975,3.761l.533,8.19S9.285,19.656,8,21.148s-5.121,1.44-6.4,1.44A1.593,1.593,0,0,0,0,23.447Z" transform="translate(89.179 38.173)" opacity="0.1"/>
    <path id="Path-116" data-name="Path" d="M0,23.447c1.333.587,10.082-.959,11.361-1.333s3.147-3.252,2.24-5.333a4.86,4.86,0,0,1,.32-4.108s1.92-4.106,2.348-4.906a37.939,37.939,0,0,0,1.44-3.521A.323.323,0,0,0,17.634,4a9.4,9.4,0,0,0-1.685-1.467c-.377.137-.423-.941-.408-1.734,0-.445.034-.8.034-.8S15.4.181,15.11.426c-.108.09-.227.188-.359.289a5.532,5.532,0,0,1-1.682.919A10.749,10.749,0,0,0,9.975,3.761l.533,8.192S9.285,19.656,8,21.15s-5.121,1.438-6.4,1.438A1.589,1.589,0,0,0,0,23.447Z" transform="translate(89.072 37.853)" fill="#67647e"/>
    <path id="Path-117" data-name="Path" d="M0,0S.049.281.134.712C.421,2.179,1.113,5.375,1.6,5.253A4.47,4.47,0,0,0,3.02,3.993,9.4,9.4,0,0,0,1.335,2.526C.959,2.663.912,1.585.927.792L.5.421Z" transform="translate(103.58 38.073)" opacity="0.1"/>
    <path id="Path-118" data-name="Path" d="M0,0S.049.281.134.714C.421,2.181,1.113,5.377,1.6,5.253A4.426,4.426,0,0,0,3.02,4,9.4,9.4,0,0,0,1.335,2.529C.959,2.666.912,1.587.927.795L.489.426Z" transform="translate(103.686 37.857)" fill="#67647e"/>
    <path id="Path-119" data-name="Path" d="M2.352,3.232S5.018,2.7,5.776,1.52,11.6-.669,10.982.559,5.764,5.8,5.764,5.8L3.776,8.651,1.118,7.978,0,5.8Z" transform="translate(97.922 50.335)" fill="#be6f72"/>
    <path id="Path-120" data-name="Path" d="M3,0S.42.961.031,2.24,3,0,3,0Z" transform="translate(103.581 56.609)" opacity="0.1"/>
    <path id="Path-121" data-name="Path" d="M3,0s.245,1.333-3,1.223Z" transform="translate(105.165 58.101)" opacity="0.1"/>
    <path id="Path-122" data-name="Path" d="M3.786.108,4.959,0A4.923,4.923,0,0,0,7.2.961c.961,0,1.546,1.223,1.546,1.223a17.062,17.062,0,0,0,2.135.853c.533.105,1.44.641,1.174.853s.051.694.533,1.069,1.223,2.294.587,2.56-2.4.8-2.881,1.066a1.323,1.323,0,0,1-1.066,0S6.4,4.906,4.959,5.6a9.323,9.323,0,0,1-3.424.694L0,3.04Z" transform="translate(118.358 40.924)" opacity="0.1"/>
    <path id="Path-123" data-name="Path" d="M.708,16.964a1.431,1.431,0,0,0,.993.692,7.537,7.537,0,0,0,3.108-.289s-5.38-1.712-.2-5.869H3.222l-.462-.176.213-1.105.3-9.963L2.149,0s-.9,6.561-1.118,7.361a36.282,36.282,0,0,0-.377,3.893,8.958,8.958,0,0,1-.533,1.92A5.591,5.591,0,0,0,.708,16.964Z" transform="translate(96.891 41.619)" fill="#67647e"/>
    <path id="Path-124" data-name="Path" d="M0,5.642a1.435,1.435,0,0,0,1,.692A7.529,7.529,0,0,0,4.1,6.045S-1.279,4.333,3.9.176H2.514L2.052,0A14.931,14.931,0,0,0,0,5.642Z" transform="translate(97.817 52.941)" opacity="0.1"/>
    <path id="Path-125" data-name="Path" d="M0,5.642a1.431,1.431,0,0,0,.993.692A7.537,7.537,0,0,0,4.1,6.045S-1.279,4.333,3.9.176H2.514L2.052,0A15.1,15.1,0,0,0,0,5.642Z" transform="translate(97.599 52.941)" fill="none"/>
    <path id="Path-126" data-name="Path" d="M0,5.642a1.431,1.431,0,0,0,.993.692A7.537,7.537,0,0,0,4.1,6.045S-1.279,4.333,3.9.176H2.514L2.052,0A15.1,15.1,0,0,0,0,5.642Z" transform="translate(97.599 52.941)" fill="#67647e"/>
    <path id="Path-127" data-name="Path" d="M0,3.443A4.861,4.861,0,0,0,5.495,2.4c-.024-.078-.049-.154-.068-.227A5.847,5.847,0,0,1,5.209.949S-.817-1.186.357.949A2.015,2.015,0,0,1,0,3.443Z" transform="translate(104.771 35.874)" opacity="0.1"/>
    <path id="Path-128" data-name="Path" d="M0,4.845v.046a2.694,2.694,0,0,0,.027.467A4.4,4.4,0,0,0,.093,5.8a4.854,4.854,0,0,0,9.351.626c.032-.093.064-.188.088-.284a4.815,4.815,0,0,0,.176-1.294A3.046,3.046,0,0,0,9.7,4.51,4.854,4.854,0,0,0,0,4.845Z" transform="translate(101.927 29.838)" fill="#be6f72"/>
    <path id="Path-129" data-name="Path" d="M0,4.9a2.1,2.1,0,0,1,.027.467,2.186,2.186,0,0,0,.012.245.714.714,0,0,0,.054.183.907.907,0,0,0,1.257.462,1.347,1.347,0,0,0,.379-.489c.45-.834,1.074-1.792,2.054-1.81a5.041,5.041,0,0,1,1.223.274,1.294,1.294,0,0,0,1.188-.161c.23-.21.34-.572.653-.648s.6.213.734.489a1.477,1.477,0,0,0,.545.753c.13.064.279.081.406.149.58.318.313,1.431.915,1.612a.514.514,0,0,0,.059.015l.029-.3c.054-.543.11-1.083.164-1.629A4.854,4.854,0,0,0,0,4.845Z" transform="translate(101.927 29.833)" opacity="0.1"/>
    <path id="Path-130" data-name="Path" d="M10.642,1.462c.57.245,1.164.614,1.291,1.2a4.646,4.646,0,0,1,.027.783A6.267,6.267,0,0,0,12.4,4.956a1.688,1.688,0,0,1-.1,1.519c-.1.134-.232.245-.323.386a1.56,1.56,0,0,0-.186.707l-.264,2.624c-.677-.125-.377-1.3-.978-1.626-.125-.068-.274-.086-.4-.149-.289-.144-.4-.474-.545-.753s-.423-.565-.734-.489-.421.435-.65.648a1.311,1.311,0,0,1-1.188.159A4.787,4.787,0,0,0,5.8,7.707c-.978.017-1.607.978-2.054,1.81a1.328,1.328,0,0,1-.379.489.913.913,0,0,1-1.311-.646c-.044-.313.051-.663-.127-.927s-.572-.323-.878-.465A1.968,1.968,0,0,1,.159,5.82,3.74,3.74,0,0,0,.3,4.061c-.066-.2-.181-.374-.245-.57A1.54,1.54,0,0,1,.6,1.946a4.478,4.478,0,0,1,1.585-.795A18.112,18.112,0,0,1,6.712.092C7.39.048,8.28-.164,8.818.259A7.011,7.011,0,0,0,10.642,1.462Z" transform="translate(99.908 25.976)" fill="#3f3d56"/>
    <circle id="Oval-22" data-name="Oval" cx="0.267" cy="0.267" r="0.267" transform="translate(109.014 42.379)" opacity="0.1"/>
    <circle id="Oval-23" data-name="Oval" cx="0.267" cy="0.267" r="0.267" transform="translate(109.014 42.274)" fill="#444053"/>
    <circle id="Oval-24" data-name="Oval" cx="0.267" cy="0.267" r="0.267" transform="translate(110.721 59.128)" opacity="0.1"/>
    <circle id="Oval-25" data-name="Oval" cx="0.267" cy="0.267" r="0.267" transform="translate(110.721 59.023)" fill="#444053"/>
    <circle id="Oval-26" data-name="Oval" cx="0.267" cy="0.267" r="0.267" transform="translate(109.814 63.556)" opacity="0.1"/>
    <circle id="Oval-27" data-name="Oval" cx="0.267" cy="0.267" r="0.267" transform="translate(109.814 63.449)" fill="#444053"/>
    <path id="Path-131" data-name="Path" d="M.261,0s-.587,3.984,0,4.678S.261,0,.261,0Z" transform="translate(100.652 46.861)" opacity="0.1"/>
    <path id="Path-132" data-name="Path" d="M1.542,0a6.027,6.027,0,0,1,0,4.727C.422,7.04-.272,7.982.1,9.459S1.542,0,1.542,0Z" transform="translate(116.816 54.259)" opacity="0.1"/>
    <path id="Path-133" data-name="Path" d="M.566,3.1a6.207,6.207,0,0,0,4.157.587S8.509,1.868,9.629,1.868A16.54,16.54,0,0,0,13.476.756L13.383,0A22.26,22.26,0,0,0,9.47.978C9.1,1.3,4.508,2.846,4.508,2.846S1.386,2.455.515,1.171C-.055,1.748-.3,2.509.566,3.1Z" transform="translate(64.822 95.437)" opacity="0.1"/>
    <g id="Group-2" data-name="Group" transform="translate(99.773 28.611)" opacity="0.1">
      <path id="Path-134" data-name="Path" d="M.122.2V.223A.1.1,0,0,0,.122.2Z" transform="translate(11.973 0.181)"/>
      <path id="Path-135" data-name="Path" d="M.926,2.059c.306.139.692.191.878.462s.083.614.127.927A.916.916,0,0,0,3.241,4.1a1.335,1.335,0,0,0,.379-.489c.448-.831,1.074-1.79,2.054-1.807A5.152,5.152,0,0,1,6.9,2.071a1.3,1.3,0,0,0,1.188-.159c.23-.21.34-.572.65-.648s.6.21.734.489a1.447,1.447,0,0,0,.545.751c.13.064.279.083.4.152.6.328.3,1.5.978,1.626l.264-2.626a1.568,1.568,0,0,1,.186-.707c.09-.139.223-.245.323-.384A1.174,1.174,0,0,0,12.387,0a1.352,1.352,0,0,1-.218.99c-.1.134-.232.245-.323.386a1.56,1.56,0,0,0-.186.707L11.4,4.707c-.677-.125-.377-1.3-.978-1.626-.125-.068-.274-.086-.4-.149-.289-.144-.4-.474-.545-.753s-.423-.565-.734-.489-.421.435-.65.648A1.311,1.311,0,0,1,6.9,2.5a4.787,4.787,0,0,0-1.223-.274C4.7,2.24,4.068,3.2,3.62,4.032a1.328,1.328,0,0,1-.379.489.913.913,0,0,1-1.311-.646c-.044-.313.051-.663-.127-.927s-.572-.323-.878-.465A1.89,1.89,0,0,1,.009.548,1.746,1.746,0,0,0,.926,2.059Z" transform="translate(0.263 2.856)"/>
      <path id="Path-136" data-name="Path" d="M.051.13C.112.325.227.5.3.7a1.712,1.712,0,0,1,.061.7A1.526,1.526,0,0,0,.3,1.127C.229.932.114.753.051.558A1.2,1.2,0,0,1,.019,0C.029.044.039.086.051.13Z" transform="translate(0.14 0.306)"/>
    </g>
    <path id="Path-137" data-name="Path" d="M6.588,5.336c1.223-.269,4.106-1.12,4.106-1.12l.516-.1c0-1.79-.1-3.524-.13-4.113h0a20.44,20.44,0,0,0-3.04,1.223,5.582,5.582,0,0,1-2.4.32A8.218,8.218,0,0,0,.465,4.316C-1.883,6.93,5.361,5.6,6.588,5.336Z" transform="translate(109.048 47.429)" opacity="0.1"/>
    <path id="Path-138" data-name="Path" d="M18.587,1.483a.712.712,0,0,1,.161,1.2,5.235,5.235,0,0,1-2.5,1.274c-1.511.152-5.135.88-5.51.954a.245.245,0,0,0-.056.015c-.3.088-2.934.856-4.079,1.108C5.377,6.3-1.883,7.633.464,5.019A8.292,8.292,0,0,1,5.6,2.249h.093a5.238,5.238,0,0,0,2.36-.32,4.981,4.981,0,0,1,.88-.44A17,17,0,0,1,12.54.449L15.049.011a.717.717,0,0,1,.423.054Z" transform="translate(109.037 46.52)" fill="#be6f72"/>
    <path id="Path-139" data-name="Path" d="M3.8.108,4.972,0a4.923,4.923,0,0,0,2.24.961c.961,0,1.548,1.223,1.548,1.223a16.992,16.992,0,0,0,2.132.853c.533.105,1.44.641,1.174.853s.054.694.533,1.069,1.223,2.294.587,2.56-2.4.8-2.871,1.069a1.323,1.323,0,0,1-1.066,0S6.4,4.908,4.972,5.6a9.292,9.292,0,0,1-3.424.694L0,3.04Z" transform="translate(118.559 40.924)" fill="#67647e"/>
    <path id="Path-140" data-name="Path" d="M3.512.081A4.016,4.016,0,0,0,0,1.022s.9.807,2.993-.086Z" transform="translate(154.357 110.367)" fill="#9baaf8"/>
    <path id="Path-141" data-name="Path" d="M.595,0a4.021,4.021,0,0,1,.46,3.6S-.031,3.084,0,.8Z" transform="translate(157.504 110.43)" fill="#9baaf8"/>
    <path id="Path-142" data-name="Path" d="M4.331.633S3.58-1,0,.976a1.928,1.928,0,0,0,1.907,1.1A2.331,2.331,0,0,0,4.331.633Z" transform="translate(155.184 107.109)" fill="#9baaf8"/>
    <path id="Path-143" data-name="Path" d="M.561,0S2.354-.083,2.254,4A1.928,1.928,0,0,1,.4,2.817,2.33,2.33,0,0,1,.561,0Z" transform="translate(159.183 107.645)" fill="#9baaf8"/>
    <path id="Path-144" data-name="Path" d="M4.578,1.668S3.763-1.171,0,.558c0,0,.658,2.6,4.143,2.03Z" transform="translate(156.421 102.795)" fill="#9baaf8"/>
    <path id="Path-145" data-name="Path" d="M5.221,1.484S3.509-1.451,0,.934c0,0,1,2.71,4.869,1.533Z" transform="translate(157.172 98.908)" fill="#9baaf8"/>
    <path id="Path-146" data-name="Path" d="M5.519,1.328S3.49-1.394,0,.956a4.731,4.731,0,0,0,5.475,1.03Z" transform="translate(157.539 95.146)" fill="#9baaf8"/>
    <path id="Path-147" data-name="Path" d="M5.4,1.425S3.345-1.411,0,.919c0,0,2.357,2.543,5.353,1.135Z" transform="translate(158.262 91.239)" fill="#9baaf8"/>
    <path id="Path-148" data-name="Path" d="M5.243,2.149S3.13-1.467,0,.682c0,0,2.316,3.142,5.2,2.13Z" transform="translate(158.443 87.098)" fill="#9baaf8"/>
    <path id="Path-149" data-name="Path" d="M5.321,2.009S3.064-1.591,0,.847c0,0,2.744,3.179,5.28,1.79Z" transform="translate(158.089 83.229)" fill="#9baaf8"/>
    <path id="Path-150" data-name="Path" d="M5.38,2.532S2.653-.892,0,.223c0,0,2.839,3.631,5.456,3.179Z" transform="translate(157.438 79.096)" fill="#9baaf8"/>
    <path id="Path-151" data-name="Path" d="M5.2,3.2S2.061-.971,0,.211c0,0,2.3,3.228,5.395,3.754Z" transform="translate(156.817 74.988)" fill="#9baaf8"/>
    <path id="Path-152" data-name="Path" d="M4.986,2.853S2.228-.57,0,.083c0,0,2.321,3.517,5.316,3.8Z" transform="translate(155.807 71.331)" fill="#9baaf8"/>
    <path id="Path-153" data-name="Path" d="M4.548,2.9S1.467-.406,0,.042c0,0,2.145,3.59,4.646,3.558Z" transform="translate(155.137 67.537)" fill="#9baaf8"/>
    <path id="Path-154" data-name="Path" d="M4.157,3.7S1.572-.177,0,.006c0,0,1.494,3.4,4.121,4.067Z" transform="translate(154.448 63.276)" fill="#9baaf8"/>
    <path id="Path-155" data-name="Path" d="M3.668,3.081S1.355.086,0,0C0,0,1.712,3.913,3.707,4.01Z" transform="translate(153.817 59.252)" fill="#9baaf8"/>
    <path id="Path-156" data-name="Path" d="M2.054,6.052.034,0S-.455,5.316,2.288,7.165Z" transform="translate(154.785 53.195)" fill="#9baaf8"/>
    <path id="Path-157" data-name="Path" d="M.787,5.329S.718.381,1,0C1,0-1,3.971.657,7.5Z" transform="translate(155.507 47.358)" fill="#9baaf8"/>
    <path id="Path-158" data-name="Path" d="M.359.238S2.971-1.146,4.338,2.764c0,0-2.33,1.33-4.338-1.575Z" transform="translate(160.737 104.167)" fill="#9baaf8"/>
    <path id="Path-159" data-name="Path" d="M.34.164s3.179-1.2,4.4,2.871c0,0-2.485,1.467-4.742-1.888Z" transform="translate(162.143 100.076)" fill="#9baaf8"/>
    <path id="Path-160" data-name="Path" d="M.044.976s2.374-2.426,5.519.372A4.73,4.73,0,0,1,0,1.634Z" transform="translate(163.141 95.743)" fill="#9baaf8"/>
    <path id="Path-161" data-name="Path" d="M.042,1.066s2.411-2.538,5.414.22c0,0-2.675,2.2-5.456.408Z" transform="translate(163.691 91.603)" fill="#9baaf8"/>
    <path id="Path-162" data-name="Path" d="M0,2.408S1.827-1.362,5.116.533c0,0-2.066,3.314-5.02,2.529Z" transform="translate(163.679 86.937)" fill="#9baaf8"/>
    <path id="Path-163" data-name="Path" d="M0,2.385S1.819-1.452,5.15.607c0,0-2.355,3.472-5.035,2.4Z" transform="translate(163.214 82.818)" fill="#9baaf8"/>
    <path id="Path-164" data-name="Path" d="M0,4.478S.907.2,3.786,0c0,0-.912,4.519-3.455,5.282Z" transform="translate(162.486 77.148)" fill="#9baaf8"/>
    <path id="Path-165" data-name="Path" d="M0,5.216S.589.027,2.966,0c0,0-.347,3.949-2.749,5.969Z" transform="translate(161.943 72.979)" fill="#9baaf8"/>
    <path id="Path-166" data-name="Path" d="M0,4.661S1,.377,3.287,0c0,0-.56,4.174-3.135,5.737Z" transform="translate(160.556 69.359)" fill="#9baaf8"/>
    <path id="Path-167" data-name="Path" d="M0,5.082S.325.572,1.748,0c0,0,.582,4.143-1.389,5.683Z" transform="translate(159.424 65.373)" fill="#9baaf8"/>
    <path id="Path-168" data-name="Path" d="M0,5.192S.506.558,1.976,0c0,0,.245,3.71-1.783,5.51Z" transform="translate(158.502 61.73)" fill="#9baaf8"/>
    <path id="Path-169" data-name="Path" d="M0,4.595S.262.819,1.34,0c0,0,.734,4.206-.858,5.38Z" transform="translate(157.257 58.096)" fill="#9baaf8"/>
    <path id="Path-170" data-name="Path" d="M.122,6.221,1.536,0S2.538,5.243,0,7.353Z" transform="translate(156.849 52.848)" fill="#9baaf8"/>
    <path id="Path-171" data-name="Path" d="M1.105,4.544S3.935.489,3.913,0c0,0-.567,4.4-3.913,6.407Z" transform="translate(156.093 48.263)" fill="#9baaf8"/>
    <path id="Path-172" data-name="Path" d="M.2,6.258S3.005.413,4.113,0A7.634,7.634,0,0,0,0,6.072Z" transform="translate(156.795 45.279)" fill="#9baaf8"/>
    <path id="Path-173" data-name="Path" d="M1.381,12.154l.166-.039C-.035,5.368-.258,1.11.921.132L.811,0C-.439,1.03-.241,5.241,1.381,12.154Z" transform="translate(156.153 51.146)" fill="#444053"/>
    <path id="Path-174" data-name="Path" d="M4.663,16.348l.245-.068c-.174-.621-.364-1.25-.567-1.873C2.58,8.992,1.108,3.964.205.12L0,0C.9,3.852,2.33,9.063,4.1,14.487,4.3,15.105,4.49,15.731,4.663,16.348Z" transform="translate(157.414 62.798)" fill="#444053"/>
    <path id="Path-175" data-name="Path" d="M.24,36.608a33.5,33.5,0,0,0,6.282-9.674A37.342,37.342,0,0,0,9.513,15.565,43.49,43.49,0,0,0,7.9,0L7.7.21A39.522,39.522,0,0,1,6.214,26.78,33.374,33.374,0,0,1,0,36.363Z" transform="translate(154.279 78.583)" fill="#444053"/>
    <path id="Shape-3" data-name="Shape" d="M35.973,65.515c-.368,0-.74-.015-1.1-.045a1.76,1.76,0,0,1-.308-.066A12.528,12.528,0,0,1,32.4,64.367l-6.114-.159-.6-.347a3.968,3.968,0,0,1-.955.12,2.09,2.09,0,0,1-2.2-1.514l-.336-.194c-.128-.072-.281-.16-.53-.305l-.626.171-.2-.626-.284.054a16.729,16.729,0,0,1-2.752.326,3.754,3.754,0,0,1-.657-.049,4.506,4.506,0,0,0-.788-.056,45,45,0,0,0-6.059.751,2.264,2.264,0,0,1-.389.034c-.052,0-.1,0-.154-.005a2.074,2.074,0,0,1-1.678-1.259,18.375,18.375,0,0,1-.151-4.228v-.416l.014-.181a.232.232,0,0,0,.01-.07c0-.014,0-.03,0-.05s.005-.044.009-.066a.545.545,0,0,0,.01-.091l.015-.115.029-.161.014-.091c.012-.063.026-.122.039-.18l.007-.031,0-.014.022-.085c0-.015.008-.031.013-.047l.009-.033c.007-.024.014-.046.017-.06a.394.394,0,0,1,.012-.039c0-.013.009-.027.015-.049a.775.775,0,0,1,.025-.077.435.435,0,0,0,.016-.048.183.183,0,0,1,.01-.026l0-.005a.118.118,0,0,0,.015-.049l.049-.124.027-.067c.016-.04.035-.08.053-.118l.017-.036.008-.016a.349.349,0,0,0,.02-.041l.066-.122.034-.059c.01-.018.021-.036.031-.053l.006-.01.016-.028.041-.063.051-.076.044-.061.047-.059c.053-.068.11-.134.168-.2l.023-.022a15.548,15.548,0,0,1-4.891-3.986C3.7,49.557.585,46.031.193,45.066c-.491-1.21-.174-3.409,2.338-5.625a3.2,3.2,0,0,1,1.76-.716v-.017L2.47,36.692a1.934,1.934,0,0,1,.2-2.142l.766-.687a3.677,3.677,0,0,1,.733-1.079,2.777,2.777,0,0,1,1.4-.832l1.4-1.254a1.192,1.192,0,0,1,.8-.309l.061,0a1.206,1.206,0,0,1,.826.394l2.825,3.128,1.436-1.649c.012-.042.3-1.043.734-1.2s.632-.846.634-.853a1.057,1.057,0,0,1,.442-.947.9.9,0,0,0,.347-.946c-.13-.258.291-.916.57-1.072.2-.112.2-.2.187-.429a3.224,3.224,0,0,1,0-.36c.032-.517.442-1,1.139-1.67a4.4,4.4,0,0,0,.874-2.072l.006-.022a14.151,14.151,0,0,1,.479-1.6c.423-1.1.885-1.281,1.191-1.4a.765.765,0,0,0,.264-.144,4.355,4.355,0,0,1,1.152-.445,10.9,10.9,0,0,0,1.63-.595,2.375,2.375,0,0,1,1.006-.154,18.513,18.513,0,0,1,3.025.364,4.506,4.506,0,0,0,.036-.541V17.99a7.212,7.212,0,0,1-5.013-8.425c.009-.045.019-.088.03-.132l.012-.049c-.113-.019-.232-.028-.348-.037H21.3a1.557,1.557,0,0,1-.747-.177,1.456,1.456,0,0,1-.511-.934,4.567,4.567,0,0,1-.14-2.093,2.87,2.87,0,0,1,.245-.638l-.015.051a7.006,7.006,0,0,1,1.031-1.436,10.889,10.889,0,0,0,.754-.956c.2-.3.379-.633.537-.93A4.657,4.657,0,0,1,23.83.427,2.837,2.837,0,0,1,25.414,0a5.808,5.808,0,0,1,1.625.263,9.528,9.528,0,0,0,1.5.394,3.9,3.9,0,0,0,.471.027A9.366,9.366,0,0,0,30.145.591c.3-.037.641-.08.97-.091l.176,0A5.522,5.522,0,0,1,34.514,1.53a1.842,1.842,0,0,1,.553.56A2.808,2.808,0,0,1,35.312,3.1a5.177,5.177,0,0,0,.668,1.846c.107.178.227.352.342.521l.021.031a7.809,7.809,0,0,1,.478.751,1.979,1.979,0,0,1,.224,1.494,2.428,2.428,0,0,1-.137.34l-.007.015a2,2,0,0,0-.157.407,2.2,2.2,0,0,0,.389,1.471c.048.091.1.2.154.3a3.305,3.305,0,0,1,.372,1.68,2.132,2.132,0,0,1-.758,1.514,2.678,2.678,0,0,1-1.545.489h-.013c-.029.072-.061.139-.086.194-.092.2-.2.4-.33.619,0,.014.006.029.01.043l0,.006,0,.009a.364.364,0,0,1,.013.083l.03.132.013,0a3.675,3.675,0,0,1,2.085.859,3.022,3.022,0,0,0,1.834.759c.015.005,1.518.508,1.487.631s.436.314,1.389.567a6.2,6.2,0,0,1,2.532,1.387,9.367,9.367,0,0,0,1.19,1.392,10.037,10.037,0,0,1,1.307,1.542,1.19,1.19,0,0,0,.133.353l0,.006a4.973,4.973,0,0,1,.529,2.513c-.111,1.948-.164,3.8.191,4.133s.015,1.655,0,1.711a.926.926,0,0,0-.032,1.011c.3.549-.048,2.836-.064,2.933l.031,2.461c-.011.05-.263,1.22-.05,1.532a.167.167,0,0,0,.114.077.18.18,0,0,1,.15.1c.082.19-.163.577-.213.652,0,.012-.342,1.273.094,1.833a9.288,9.288,0,0,1,.568,3L55.041,54.3a1.811,1.811,0,0,1-.455,1.216,2.039,2.039,0,0,1-1.544.55h-.061l-.2,0c-1,0-1.565.111-1.77.35a.539.539,0,0,0-.076.473c.06.385-.53.8-.6.851-.046.025-.45.254-.5.562a.48.48,0,0,0,.154.416c.036.039.077.081.122.127.353.361.885.906.756,1.454-.1.4-.541.74-1.324,1.007a5.767,5.767,0,0,1-.694-1.262,14.408,14.408,0,0,1-.507-1.712,14.578,14.578,0,0,0-.32-1.957,9.184,9.184,0,0,1-1.525,2.94A5.8,5.8,0,0,1,42.9,61.5a48.656,48.656,0,0,1-5.651.463c.052,1.1.1,2.289.147,3.441l0,.07-.009,0h-.014c-.271.02-.542.03-.806.03C36.363,65.51,36.163,65.515,35.973,65.515ZM12.335,40.8h0c.347.165.555.276.557.277.056.019,5.6,1.953,5.786,2.363.106.234.677.419,1.337.632a10.1,10.1,0,0,1,1.541.591c.017-.057.034-.118.049-.181a5.89,5.89,0,0,1-2.247-.866,2.813,2.813,0,0,1,.041-.521c-.08-.05-.12-.088-.12-.117a7,7,0,0,1,.114-1.042l-.185-.03-2.2-.349a22.012,22.012,0,0,1-2.8-.521l-.4.041Zm9.311-6.645h0L19.3,37.719l.292.074.2.044a.313.313,0,0,0-.068-.161h.008l.1,0c1.164.053,2,.111,2.493.15a3.426,3.426,0,0,0-.071-1.037,14.786,14.786,0,0,1-.6-2.636Z" transform="translate(205.596 120.878)" fill="url(#linear-gradient-3)"/>
    <path id="Path-176" data-name="Path" d="M39.836,11.853s-.878,5.3-5.326,6.079-19.307.621-19.307.621-8.493-1.223-11.562-8.4S-1.406.13,1.227,0,18.057,4.8,18.871,4.859,40.621-6.043,39.836,11.853Z" transform="translate(213.605 164.696)" fill="#65617d"/>
    <path id="Path-177" data-name="Path" d="M39.836,11.853s-.878,5.3-5.326,6.079-19.307.621-19.307.621-8.493-1.223-11.562-8.4S-1.406.13,1.227,0,18.057,4.8,18.871,4.859,40.621-6.043,39.836,11.853Z" transform="translate(213.605 164.696)" opacity="0.05"/>
    <path id="Path-178" data-name="Path" d="M.157,8.031A2.03,2.03,0,0,0,1.82,9.283a2.145,2.145,0,0,0,.536-.029c1.629-.281,5.453-.941,6.8-.69a11.526,11.526,0,0,0,3.377-.274c.709-.134,1.223-.259,1.223-.259S12.5,3.874,12.345,3.737,6.7.313,6.7.313L2.36,0h0A2.286,2.286,0,0,0,.893.863,4.632,4.632,0,0,0,.015,3.822C-.058,7.5.157,8.031.157,8.031Z" transform="translate(213.447 174.409)" fill="#3f3d56"/>
    <path id="Path-179" data-name="Path" d="M.145,8.011A2.03,2.03,0,0,0,1.808,9.263,18.341,18.341,0,0,1,.627,7.551l.024-3.04A5.353,5.353,0,0,1,2.363,0h0S.076.154.013,3.822A18.716,18.716,0,0,0,.145,8.011Z" transform="translate(213.46 174.429)" opacity="0.05"/>
    <path id="Path-180" data-name="Path" d="M2.536,9.51,6.578,6.346,12.936.078S12.249.044,11.212,0c-.259.164-.978.682-1.008,1.311-.032.765-1.712.051-2.6.489S2.438,7.732,1.685,7.7.337,7.314.024,7.847L0,7.882Z" transform="translate(229.908 166.286)" opacity="0.1"/>
    <path id="Path-181" data-name="Path" d="M0,.873c.144.071.289.137.438.2A27.7,27.7,0,0,1,7.583,5.649,29.5,29.5,0,0,0,11.65,8.29c.709-.134,1.223-.259,1.223-.259s-1.254-4.157-1.411-4.294S5.82.313,5.82.313L1.477,0h0A2.286,2.286,0,0,0,0,.873Z" transform="translate(214.331 174.409)" opacity="0.1"/>
    <path id="Path-182" data-name="Path" d="M.19,6.334c.408,1,3.822,4.859,3.822,4.859a15,15,0,0,0,5.236,4.135A27.671,27.671,0,0,1,16.391,19.9a32.856,32.856,0,0,0,4.355,2.81l.386.225c.337.2.631.369.856.489l.452.262s1.049-.844,2.093-1.69,2.059-1.68,2.074-1.726c.032-.093.44-1.159.345-1.223-.049-.032-.264-.465-.66-.978a4.416,4.416,0,0,0-1.6-1.318A4.544,4.544,0,0,1,22.63,14.6s-.139-.1-.345-.232a4.179,4.179,0,0,0-1.411-.628c-.69-.086-1.973-1.5-1.973-1.5a3.848,3.848,0,0,1-1.223-1.284c-.345-.721-5.189-4.025-5.639-4.333L23.82,14.188,26.64,16l4.042-3.164L37.04,6.568s-.856-.042-2.1-.1c-3.091-.134-8.583-.342-9.275-.188a5.292,5.292,0,0,1-1.712.115,6.07,6.07,0,0,1-2.6-.477c-1.034-.545-2.666-.8-2.854-1.206S12.76,2.384,12.76,2.384,5.206-1.626,2.511.756-.218,5.331.19,6.334Z" transform="translate(205.616 159.967)" fill="#65617d"/>
    <path id="Path-183" data-name="Path" d="M0,9.281l.978,3.228,1.252,7.27,4.607.313,1.335-2.2,1.33-2.2s.829-2.934,1.423-5.779c.528-2.516.873-4.957.3-5.221-.509-.245-.841-1.081-1.059-1.993-.027-.112-.054-.227-.076-.34A17.575,17.575,0,0,1,9.784.02S.132-.481,1.47,3.5a6.3,6.3,0,0,1,.362,2.115,4.793,4.793,0,0,1-.032.54A4.519,4.519,0,0,1,0,9.281Z" transform="translate(230.158 134.018)" fill="#ee8e9e"/>
    <path id="Path-184" data-name="Path" d="M0,2.6.345,8.087l.785,4.671.878,2.162L2.79,26.75s7.556.875,9.393-.015a.8.8,0,0,0,.333-.259c2.22-3.353,1.494-13.061,1.494-13.061l.846-6.268L14.291,3.9l-1.365-.144-1.049-.112s-.245.291-.577.734C10.371,5.6,8.662,8.011,8.777,9.019c.157,1.379-.188,2.79-.734,3.008s-.978.6-1.066.22a1.734,1.734,0,0,1-.093-1A8.066,8.066,0,0,0,6.48,9.1,9.061,9.061,0,0,1,5.7,6.37a3.221,3.221,0,0,0-.345-1.976c-.249-.22-.6-.438-.313-1.44S3.8,0,3.8,0Z" transform="translate(228.157 140.161)" fill="#e3e8f4"/>
    <path id="Path-185" data-name="Path" d="M.013,19.823l.313,9.371,1.81,1a.778.778,0,0,0,.333-.259c2.22-3.353,1.494-13.061,1.494-13.061l.846-6.268L4.243,7.356,2.879,7.212c.528-2.516.873-4.954.3-5.221C2.669,1.746,2.334.91,2.118,0h0L1.14,6.63s.083.6.112,1.223a3.5,3.5,0,0,1-.081,1.169,3.865,3.865,0,0,0-.061,1.565,12.572,12.572,0,0,0-.978,4.622C-.058,17.565.013,19.823.013,19.823Z" transform="translate(238.119 136.64)" opacity="0.1"/>
    <path id="Path-186" data-name="Path" d="M1.962,0s1.58.2,2.081.856a2.953,2.953,0,0,0,1.817.751s1.5.489,1.467.628.44.313,1.379.562a6.2,6.2,0,0,1,2.507,1.379c0,.218,2.477,2.666,2.477,2.915a6.254,6.254,0,0,1,.658,2.851c-.093,1.66-.188,3.761.188,4.106s0,1.692,0,1.692a.927.927,0,0,0-.032,1c.313.565-.064,2.915-.064,2.915l.032,2.445s-.345,1.536.064,1.6-.064.753-.064.753-.345,1.252.1,1.817a9.178,9.178,0,0,1,.562,2.979l6.708,9.745s.093,1.788-2.037,1.756-2.1.406-2.037.814-.6.846-.6.846-.846.438-.345.978,1.956,1.756-.438,2.57a5.708,5.708,0,0,1-.69-1.252,14.305,14.305,0,0,1-.489-1.695s-.22-2.379-.658-2.69-.377-1.817-.377-1.817.626-1.223-.245-1.724S.329,29.23.329,29.23L.013,19.859s-.218-6.925,1.1-9.246a3.883,3.883,0,0,1,.064-1.565,8.1,8.1,0,0,0-.032-2.382Z" transform="translate(238.304 136.488)" fill="#3f3d56"/>
    <path id="Path-187" data-name="Path" d="M11.447.362s-3.15-.648-4-.21S4.944.934,4.692,1.186s-.878.061-1.44,1.536S2.623,5.7,1.9,6.39.807,7.549.775,8.051s.1.628-.188.785S-.1,9.65.024,9.9s6.517,5.766,6.517,5.766a14.916,14.916,0,0,0,.6,2.631c.284.533-.313,7.867-.941,8.368s4.231.455,4.231.455.22-4.813.408-5.062a49.729,49.729,0,0,0-.125-5.38,30.8,30.8,0,0,1,.374-5.549,25.454,25.454,0,0,0,.362-5.013,10.364,10.364,0,0,1,.8-2.851C12.684,2.729,11.447.362,11.447.362Z" transform="translate(220.606 139.887)" opacity="0.1"/>
    <path id="Path-188" data-name="Path" d="M11.448.363s-3.152-.65-4-.21S4.943.935,4.694,1.185s-.878.064-1.443,1.536S2.625,5.7,1.9,6.389.808,7.548.776,8.049s.093.626-.188.783S-.1,9.648.023,9.9s6.519,5.766,6.519,5.766A15.1,15.1,0,0,0,7.137,18.3c.281.533-.313,7.864-.939,8.366s4.231.455,4.231.455.22-4.81.406-5.062a50.347,50.347,0,0,0-.125-5.38,30.582,30.582,0,0,1,.377-5.546,25.274,25.274,0,0,0,.362-5.016,10.34,10.34,0,0,1,.8-2.851C12.683,2.725,11.448.363,11.448.363Z" transform="translate(220.512 139.793)" fill="#3f3d56"/>
    <path id="Path-189" data-name="Path" d="M.129,3.5A6.3,6.3,0,0,1,.491,5.615a7.1,7.1,0,0,0,2.052.3,7.177,7.177,0,0,0,6.2-3.556A17.575,17.575,0,0,1,8.434.02S-1.218-.481.129,3.5Z" transform="translate(231.501 134.001)" opacity="0.1"/>
    <path id="Path-190" data-name="Path" d="M0,7.179A7.177,7.177,0,1,0,.157,5.688,7.177,7.177,0,0,0,0,7.179Z" transform="translate(226.866 125.37)" fill="#ee8e9e"/>
    <path id="Path-191" data-name="Path" d="M6.287,0,4.575.533a.9.9,0,0,1-.345.941,1.044,1.044,0,0,0-.438.939s-.188.69-.628.846-.719,1.191-.719,1.191L1,6.111s-.533.44-.438.658S0,7.053,0,7.053l.345,5.578,2.979.562,1.849-.186,1.5-.565,1.316-.783.6-1.536,2.619-4.013Z" transform="translate(215.972 149.158)" fill="#3f3d56"/>
    <path id="Path-192" data-name="Path" d="M7.683,3.42S3.859-2.095,1.007.881s1.159,7.8,2.1,7.647S8.53,8.12,8.53,8.12Z" transform="translate(208.716 153.229)" fill="#ee8e9e"/>
    <rect id="Rectangle-22" data-name="Rectangle" width="20.011" height="15.538" rx="1.54" transform="matrix(0.891, 0.455, -0.455, 0.891, 208.043, 145.41)" fill="#3f3d56"/>
    <rect id="Rectangle-23" data-name="Rectangle" width="16.82" height="12.675" transform="matrix(0.891, 0.455, -0.455, 0.891, 208.84, 147.392)" fill="#9baaf8"/>
    <circle id="Oval-28" data-name="Oval" cx="0.276" cy="0.276" r="0.276" transform="translate(205.117 152.454)" fill="#e6e8ec"/>
    <circle id="Oval-29" data-name="Oval" cx="0.455" cy="0.455" r="0.455" transform="translate(221.154 160.585)" fill="#e6e8ec"/>
    <path id="Path-193" data-name="Path" d="M0,1.949C-.032,6.087,8.525,6.965,8.525,6.965l2.186.345.978.157.408-4.05s-.448-.068-1.01-.2c-.827-.193-1.9-.526-2.125-.993C8.586,1.438.032-2.2,0,1.949Z" transform="translate(213.922 155.868)" fill="#ee8e9e"/>
    <path id="Path-194" data-name="Path" d="M0,5.665a.856.856,0,0,1,.523.245c.245.257.245.712.572.871a.628.628,0,0,0,.374.042C2.3,6.7,2.785,5.763,3.585,5.506a2.105,2.105,0,0,1,1.4.12,1.059,1.059,0,0,1,.465.3c.267.347.081.856.2,1.274.174.582.868.814,1.467.89a2.575,2.575,0,0,1,1.68.572,1.526,1.526,0,0,1,.3,1.223.934.934,0,0,0,0,.45c.166.47.978.4,1.191.029.157-.271.108-.489.474-.57a1.546,1.546,0,0,1,.768.132,5.637,5.637,0,0,0,1.983.306A7.177,7.177,0,1,0,0,5.685Z" transform="translate(227.023 125.392)" opacity="0.1"/>
    <path id="Path-195" data-name="Path" d="M10.861,13.982a.978.978,0,0,1,0-.45,1.514,1.514,0,0,0-.3-1.223,2.61,2.61,0,0,0-1.68-.572c-.6-.083-1.3-.306-1.467-.888-.122-.421.064-.932-.2-1.277a1.059,1.059,0,0,0-.465-.3,2.12,2.12,0,0,0-1.4-.12c-.8.245-1.284,1.2-2.115,1.316a.628.628,0,0,1-.374-.042c-.315-.159-.33-.614-.572-.871-.379-.4-1.1-.142-1.568-.443a1.441,1.441,0,0,1-.506-.927A4.519,4.519,0,0,1,.072,6.11C.346,4.944,1.387,4.154,2.052,3.149c.619-.927.978-2.1,1.9-2.714A3.752,3.752,0,0,1,7.132.27,9.408,9.408,0,0,0,8.621.662,16.464,16.464,0,0,0,11.171.505a5.48,5.48,0,0,1,3.37,1.025,1.861,1.861,0,0,1,.55.555,2.934,2.934,0,0,1,.245,1A5.116,5.116,0,0,0,16,4.917c.264.44.594.841.831,1.3A1.976,1.976,0,0,1,17.053,7.7a7.943,7.943,0,0,0-.3.756,2.838,2.838,0,0,0,.538,1.761,3.294,3.294,0,0,1,.367,1.67,2.1,2.1,0,0,1-.751,1.5,2.69,2.69,0,0,1-1.59.489,5.576,5.576,0,0,1-2.022-.3,1.572,1.572,0,0,0-.768-.132c-.367.076-.318.3-.474.57C11.839,14.38,11.027,14.451,10.861,13.982Z" transform="translate(225.261 121.536)" fill="#3f3d56"/>
    <path id="Path-196" data-name="Path" d="M2.82,9.527,6.862,6.363,13.22.1s-.856-.042-2.1-.1a1.372,1.372,0,0,0-.443.856c-.032.768-1.712.054-2.6.489S2.915,7.282,2.162,7.256.814,6.874.5,7.407l-.024.034A.893.893,0,0,1,0,7.725Z" transform="translate(229.436 166.457)" opacity="0.1"/>
    <path id="Path-197" data-name="Path" d="M0,11.47l2.032,6.485.318,1.017.978-.264,2.135-.584,9.5-2.609a8.266,8.266,0,0,0,3.424-.912,10.359,10.359,0,0,1,5.9-1.289c1.254.12,2.651-.423,3.81-2.563,0,0,2.631-7.772-4.013-10s-6.96,1.181-6.96,1.181l-.09.056c-.259.164-.978.682-1.008,1.311-.032.765-1.712.051-2.6.489s-5.17,5.933-5.923,5.9-1.347-.381-1.66.152l-.024.034c-.232.32-.929.4-1.391.408H4l-.059.02-.489.142Z" transform="translate(224.108 164.294)" fill="#65617d"/>
    <path id="Path-198" data-name="Path" d="M0,4.081l.978.157L1.387.2S.939.13.377,0A20.568,20.568,0,0,1,0,4.081Z" transform="translate(224.633 159.086)" opacity="0.1"/>
    <path id="Path-199" data-name="Path" d="M25.477.1s2.915-.846,2.2,7.427a23.076,23.076,0,0,1-6.114,13.506s-6.2,2.727-8.994,2.289-4.827-.533-4.827-.533a7.092,7.092,0,0,0-2.82-.753C3.356,21.971.067,21,0,20.684s.814-4.92.44-5.265c0,0,4.387.181,4.825.489s1.066.088,1.536,0a5.341,5.341,0,0,1,4.764-.245,2.889,2.889,0,0,0,1.347-.157,1.35,1.35,0,0,1,.978-.064,2.761,2.761,0,0,0,.68-.345c.1-.125.846,0,.846,0a.333.333,0,0,0,.47-.218,2.069,2.069,0,0,1,.44-.69s.846-4.764,2.445-6.551a1.013,1.013,0,0,0,.342-.907C18.99,6.232,21.716-.906,25.477.1Z" transform="translate(224.782 144.183)" opacity="0.1"/>
    <path id="Path-200" data-name="Path" d="M25.479.095s2.915-.846,2.2,7.427a23.076,23.076,0,0,1-6.114,13.506s-6.206,2.727-8.994,2.289-4.827-.533-4.827-.533a7.092,7.092,0,0,0-2.822-.743C3.356,21.979.064,21.008,0,20.692s.814-4.92.438-5.265c0,0,4.387.181,4.827.489s1.064.09,1.536,0a5.328,5.328,0,0,1,4.761-.245,2.9,2.9,0,0,0,1.35-.157,1.35,1.35,0,0,1,.978-.064,2.724,2.724,0,0,0,.682-.345c.093-.125.846,0,.846,0a.333.333,0,0,0,.47-.218,2.039,2.039,0,0,1,.438-.69s.846-4.764,2.445-6.551a1.019,1.019,0,0,0,.345-.907C18.994,6.24,21.721-.9,25.479.095Z" transform="translate(224.701 143.539)" fill="#3f3d56"/>
    <path id="Path-201" data-name="Path" d="M0,.142,4.14,5.152l.027-.029c.032-.1.438-1.162.345-1.223A5.826,5.826,0,0,0,2.255,1.612,4.275,4.275,0,0,1,.484,0Z" transform="translate(227.546 174.593)" opacity="0.1"/>
    <path id="Path-202" data-name="Path" d="M.09,5.542.542,5.8s1.049-.844,2.093-1.69,2.059-1.68,2.074-1.726c.032-.093.44-1.159.345-1.223C5.005,1.132,4.79.7,4.394.186c-2.8-.785-1.02,1.162-.78,1.252a2.857,2.857,0,0,0-3.6,2.934A4.4,4.4,0,0,0,.09,5.542Z" transform="translate(227.515 177.86)" opacity="0.1"/>
    <path id="Path-203" data-name="Path" d="M3.254,7.11l.6.345L9.9,7.611a12.08,12.08,0,0,0,2.14,1.03,1.9,1.9,0,0,0,.306.068,13.8,13.8,0,0,0,1.685.032c.462,0,.822-.032.822-.032s-.286-7.627-.489-8.432c-.105-.384-.611-.3-1.11-.108a7.5,7.5,0,0,0-1.083.55,18.907,18.907,0,0,0-2.979.47c-.408.225-1.565-.127-2.286,0S4.9.341,4.9.341c-3.512-1.159-1.538,1-1.286,1.1a2.857,2.857,0,0,0-3.6,2.934C-.174,8.093,3.254,7.11,3.254,7.11Z" transform="translate(227.81 177.869)" fill="#3f3d56"/>
    <path id="Path-204" data-name="Path" d="M0,4.158C.069,5.735,1.3,7.7,2.035,8.733c.462,0,.822-.032.822-.032S2.57,1.074,2.367.269c-.105-.384-.611-.3-1.11-.108A8.755,8.755,0,0,0,0,4.158Z" transform="translate(239.804 177.869)" fill="#565387"/>
    <path id="Path-205" data-name="Path" d="M0,4.158C.069,5.735,1.3,7.7,2.035,8.733c.462,0,.822-.032.822-.032S2.57,1.074,2.367.269c-.105-.384-.611-.3-1.11-.108A8.755,8.755,0,0,0,0,4.158Z" transform="translate(239.804 177.869)" opacity="0.1"/>
    <path id="Path-206" data-name="Path" d="M.1,4.365C.517,5.891.513,7.6,1.175,8.633a1.9,1.9,0,0,0,.306.068,13.8,13.8,0,0,0,1.685.032c.462,0,.822-.032.822-.032S3.7,1.074,3.5.269c-.105-.384-.611-.3-1.11-.108A7.5,7.5,0,0,0,1.3.712S-.431,2.414.1,4.365Z" transform="translate(238.673 177.877)" opacity="0.05"/>
    <path id="Path-207" data-name="Path" d="M0,0A12.532,12.532,0,0,1,5.549,4.441Z" transform="translate(217.908 166.78)" opacity="0.1"/>
    <g id="Group-3" data-name="Group" transform="translate(225.223 126.917)" opacity="0.1">
      <path id="Path-208" data-name="Path" d="M.183,0a.088.088,0,0,1-.02.066,2.147,2.147,0,0,1-.1.262A1.712,1.712,0,0,1,.183,0Z" transform="translate(16.915 2.26)"/>
      <path id="Path-209" data-name="Path" d="M.071.633A2.979,2.979,0,0,1,.316,0C.3.054.282.108.269.164A4.519,4.519,0,0,0,.409,2.242a1.436,1.436,0,0,0,.506.927c.465.3,1.188.039,1.568.443.245.245.245.712.572.868a.628.628,0,0,0,.374.044c.831-.117,1.313-1.059,2.115-1.318a2.123,2.123,0,0,1,1.4.122,1.039,1.039,0,0,1,.465.3c.267.345.078.856.2,1.274.174.582.866.814,1.467.89a2.557,2.557,0,0,1,1.68.572,1.514,1.514,0,0,1,.3,1.223.978.978,0,0,0,0,.45c.166.47.978.4,1.191.027.154-.269.108-.489.474-.567a1.546,1.546,0,0,1,.768.132,5.624,5.624,0,0,0,2.022.3,2.7,2.7,0,0,0,1.59-.489,1.868,1.868,0,0,0,.489-.592,1.981,1.981,0,0,1-.675,1.061,2.69,2.69,0,0,1-1.59.489,5.576,5.576,0,0,1-2.022-.3,1.572,1.572,0,0,0-.768-.132c-.367.076-.32.3-.474.57-.213.369-1.025.44-1.191-.029a.978.978,0,0,1,0-.45,1.514,1.514,0,0,0-.3-1.223,2.61,2.61,0,0,0-1.68-.572c-.6-.083-1.3-.306-1.467-.888-.125-.421.064-.932-.2-1.277a1.059,1.059,0,0,0-.465-.3,2.12,2.12,0,0,0-1.4-.12c-.8.245-1.284,1.2-2.115,1.316a.628.628,0,0,1-.374-.042c-.315-.159-.33-.614-.572-.871-.379-.4-1.1-.142-1.568-.443a1.441,1.441,0,0,1-.506-.927A4.365,4.365,0,0,1,.071.633Z" transform="translate(0.029 0.105)"/>
    </g>
    <path id="Path-210" data-name="Path" d="M2.518,1.507C1.946,2.283,1.3,3,.781,3.821A4.363,4.363,0,0,0,.019,6.555,7.14,7.14,0,0,0,1.117,4.6a28.652,28.652,0,0,1,2.11-3.179c.134-.2,1-1.362.562-1.418C3.427-.041,2.713,1.243,2.518,1.507Z" transform="translate(240.288 151.231)" opacity="0.1"/>
  </g>
</svg>
