<svg xmlns="http://www.w3.org/2000/svg" xmlns:xlink="http://www.w3.org/1999/xlink" width="279.718" height="219.764" viewBox="0 0 279.718 219.764">
  <defs>
    <linearGradient id="linear-gradient" x1="0.5" y1="1" x2="0.5" gradientUnits="objectBoundingBox">
      <stop offset="0" stop-color="gray" stop-opacity="0.251"/>
      <stop offset="0.54" stop-color="gray" stop-opacity="0.122"/>
      <stop offset="1" stop-color="gray" stop-opacity="0.102"/>
    </linearGradient>
  </defs>
  <g id="boarding_img_two_light" transform="translate(-0.267 -0.001)">
    <path id="Path" d="M136.587,19.274c-10.015-1.2-19.382-4.891-28.836-8.01a257.7,257.7,0,0,0-32.111-8.3C64.058.751,52.119-.692,40.508.34S17.568,5.083,10.162,11.868C-2.384,23.377-1.325,40.822,2.818,56.2c4.917,18.243,13.42,36.276,27.336,51.813,9.891,11.044,22.3,20.6,34.6,30.1,6.954,5.355,13.973,10.749,22.1,14.959,7.556,3.912,15.9,6.718,24.184,9.483,8.846,2.956,17.714,5.928,26.847,8.188,29.153,7.212,59.843,6.987,89.85,6.344,10.56-.223,21.6-.591,30.459-4.716,6.9-3.225,11.823-8.448,15.55-14.019,4.877-7.3,7.957-16.007,4.493-24.147-5.106-12.006-22.6-19.079-28.43-30.9-7.465-15.172,7.035-31.208,2.932-47-1.706-6.57-6.519-12.509-11.619-18.047-12.165-13.2-28.333-25.232-50.064-23.475C172.659,16.259,155.878,21.59,136.587,19.274Z" transform="translate(0.267 0.001)" fill="#96b0f7" opacity="0.1"/>
    <path id="Path-2" data-name="Path" d="M8.33,0H92.438a8.33,8.33,0,0,1,8.33,8.3v184.16a8.33,8.33,0,0,1-8.33,8.3H8.33a8.33,8.33,0,0,1-8.33-8.3V8.3A8.33,8.33,0,0,1,8.33,0Z" transform="translate(83.656 11.896)" fill="#a2abc9"/>
    <rect id="Rectangle" width="99.231" height="198.461" rx="26.87" transform="translate(183.653 211.894) rotate(180)" fill="#a2abc9"/>
    <rect id="Rectangle-2" data-name="Rectangle" width="84.615" height="161.537" transform="translate(176.344 193.434) rotate(180)" fill="#fff"/>
    <circle id="Oval" cx="0.769" cy="0.769" r="0.769" transform="translate(143.268 21.895)" fill="#fff"/>
    <rect id="Rectangle-3" data-name="Rectangle" width="16.924" height="1.54" rx="0.77" transform="translate(140.188 23.432) rotate(180)" fill="#fff"/>
    <circle id="Oval-2" data-name="Oval" cx="5.385" cy="5.385" r="5.385" transform="translate(129.036 195.739)" fill="#fff"/>
    <ellipse id="Oval-3" data-name="Oval" cx="68.253" cy="13.167" rx="68.253" ry="13.167" transform="translate(61.753 193.431)" fill="#96b0f7" opacity="0.1"/>
    <rect id="Rectangle-4" data-name="Rectangle" width="65.298" height="87.332" transform="translate(101.388 56.924)" fill="#96b0f7" opacity="0.1"/>
    <path id="Shape" d="M42.161,84.531H5.186A79.113,79.113,0,0,1,7.814,74.454c.018-.064.038-.123.057-.18l.005-.017.023-.072.135-.4a9.085,9.085,0,0,1-4.662,1.892,3.079,3.079,0,0,1-.8-.1A3.025,3.025,0,0,1,.6,73.628a9.7,9.7,0,0,1-.591-3.267,23.375,23.375,0,0,1,.316-4.426l0-.032C.576,63.981,2.749,46.936,3.493,40.6c.2-1.75,1.532-3.309,3.946-4.634a29.807,29.807,0,0,1,7.468-2.622,5.824,5.824,0,0,0,.686-3.566,4.129,4.129,0,0,0-.116-.436,8.742,8.742,0,0,0-1.38-2.362l-.009-.013a13.945,13.945,0,0,1-.973-1.451,4.477,4.477,0,0,1-.537-1.427c-.273-1.6.569-3.1,1.384-4.54a12.816,12.816,0,0,0,1.284-2.753,3.783,3.783,0,0,0,.1-.39A6.58,6.58,0,0,1,13.7,14.313a4.357,4.357,0,0,1-.233-3.455,6.789,6.789,0,0,1,3.1-3.351c.718-.425,1.48-.795,2.131-1.1a3.4,3.4,0,0,1,.865-.4L19.585,6c2.392-1.055,4.866-2.145,6.322-4.289.054-.08.108-.162.16-.243l.03-.046A3.013,3.013,0,0,1,27.218.227a2.53,2.53,0,0,1,.9-.2c.2-.016.4-.023.6-.023a16.783,16.783,0,0,1,6.053,1.585l.01,0A16.745,16.745,0,0,0,40.808,3.17a7.562,7.562,0,0,0,.932-.057c.4-.05.815-.136,1.214-.218l.027-.006a9.514,9.514,0,0,1,1.919-.27,3.45,3.45,0,0,1,1.056.153,4.954,4.954,0,0,1,2.19,1.674,17.276,17.276,0,0,1,3.747,14.225c-.152.788-.359,1.586-.56,2.357-.595,2.283-1.21,4.644-.435,6.852a12.481,12.481,0,0,0,1.291,2.432l0,.007a7.481,7.481,0,0,1,1.524,3.806c.014,1.878-1.316,3.386-2.6,4.844l-.03.033c.188.2.35.374.494.537a8.813,8.813,0,0,1,2.489,5.807,6.271,6.271,0,0,1-.363,2.128L52.061,63.229,50.684,73.8a8.7,8.7,0,0,1-.57,2.287,4.838,4.838,0,0,1-2.969,3,4.62,4.62,0,0,1-1.317.183,7.062,7.062,0,0,1-2.018-.325,28.517,28.517,0,0,1-3.225-1.161l.011.037c.014.046.029.094.044.141l.021.066c.018.056.036.113.054.173A40.563,40.563,0,0,1,42.16,84.53Zm.58-24.74c-.106.377-.236.785-.4,1.246a30.777,30.777,0,0,1-1.284,3,15.557,15.557,0,0,0-1.241,3.692l.631.323.059.032a.066.066,0,0,0,0-.018c-.075-.147-.158-.3-.268-.506a3.256,3.256,0,0,0,1.253.3,1.606,1.606,0,0,0,.67-.133c.749-.335,1.026-1.3.823-2.869a42.907,42.907,0,0,1-.245-5.068ZM23.547,29.068h0c-.014.225-.027.4-.043.551a10.461,10.461,0,0,1-.3,1.644,6.954,6.954,0,0,0,.349-1.612v-.03A4.759,4.759,0,0,0,23.6,29.1l-.049-.032Z" transform="translate(105.721 59.72)" fill="url(#linear-gradient)"/>
    <path id="Path-3" data-name="Path" d="M4.053,1.877A4.789,4.789,0,0,0,1.941,4.188c-.505,1.642.763,3.289.887,5C3.056,12.305-.466,14.88.052,17.962c.355,2.112,2.521,3.547,2.937,5.643C3.6,26.668.278,29.369.539,32.472a6.168,6.168,0,0,0,2.6,4.093,12.654,12.654,0,0,0,6.35,2.607c-.153-2.663-2.131-5.089-1.79-7.736.234-1.814,1.51-3.3,2.249-4.974,1.3-2.94.881-6.342.1-9.459s-1.9-6.2-1.959-9.4c-.035-1.935.873-4.775.207-6.61C7.49-1.238,5.561.85,4.053,1.877Z" transform="translate(118.564 66.498)" fill="#b0605d"/>
    <path id="Path-4" data-name="Path" d="M4.053,1.877A4.789,4.789,0,0,0,1.941,4.188c-.505,1.642.763,3.289.887,5C3.056,12.305-.466,14.88.052,17.962c.355,2.112,2.521,3.547,2.937,5.643C3.6,26.668.278,29.369.539,32.472a6.168,6.168,0,0,0,2.6,4.093,12.654,12.654,0,0,0,6.35,2.607c-.153-2.663-2.131-5.089-1.79-7.736.234-1.814,1.51-3.3,2.249-4.974,1.3-2.94.881-6.342.1-9.459s-1.9-6.2-1.959-9.4c-.035-1.935.873-4.775.207-6.61C7.49-1.238,5.561.85,4.053,1.877Z" transform="translate(118.832 65.96)" opacity="0.1"/>
    <path id="Path-5" data-name="Path" d="M7.507,28.824S-6.735,14.313,4.014,15.388c2.437.245,4.087-.191,5.181-1.008a5.205,5.205,0,0,0,1.916-3.84,15.956,15.956,0,0,0-.916-6.18S24.7-7.195,21.749,7.316a24.738,24.738,0,0,0-.564,4.485c-.048,3.079.965,4.259,2.386,4.743,2.4.82,5.96-.328,7.583,2.327C34.11,23.718,7.507,28.824,7.507,28.824Z" transform="translate(118.221 79.406)" fill="#ffb9b9"/>
    <path id="Path-6" data-name="Path" d="M11.555,7.321a24.738,24.738,0,0,0-.564,4.485,10.969,10.969,0,0,1-1.18.336A11.576,11.576,0,0,1,.916,10.53,15.956,15.956,0,0,0,0,4.349S14.511-7.189,11.555,7.321Z" transform="translate(128.416 79.411)" opacity="0.05"/>
    <path id="Path-7" data-name="Path" d="M23.109,11.538A11.555,11.555,0,0,1,0,11.538c0-.215,0-.43.019-.642a11.555,11.555,0,0,1,23.091.642Z" transform="translate(124.116 68.208)" fill="#ffb9b9"/>
    <path id="Path-8" data-name="Path" d="M7.507,14.443S-6.735-.067,4.014,1.008C6.451,1.252,8.1.817,9.195,0,7.128,3.45,4.774,9.647,15.3,9.069c9.633-.537,9.469-4.375,8.271-6.9,2.4.82,5.96-.328,7.583,2.327C34.11,9.338,7.507,14.443,7.507,14.443Z" transform="translate(118.221 93.787)" fill="#9b9cbc" opacity="0.05"/>
    <path id="Path-9" data-name="Path" d="M52.431,15.276a3.657,3.657,0,0,1-.25.572l-3.652,2.787-.465.357h0l-6.092,4.649s.559.978-.239,3.843A25.893,25.893,0,0,1,40.092,31.7a15.714,15.714,0,0,0-1.215,3.66.417.417,0,0,1,0,.056c-.046.234-.086.465-.118.693a19.616,19.616,0,0,0,.2,6.871.914.914,0,0,0,.019.091c.129.613.25,1.029.3,1.185l.024.073s.129.344.322.946l.016.054a40.934,40.934,0,0,1,1.521,6.543H5.092a79.741,79.741,0,0,1,2.62-10.106l.132-.392c-.22.15-.435.293-.642.422-2.5,1.569-4.157,1.733-5.245,1.129C-1.073,41.242.319,33.584.319,33.584S2.638,15.137,3.41,8.459c.443-3.84,6.119-6.014,11.144-7.2A59.445,59.445,0,0,1,22.3,0h.054s-.075.091-.2.269L22.136.29c-.094.124-.215.282-.349.476h0a18.52,18.52,0,0,0-2.2,3.926c-.833,2.193-.975,4.587,1.462,5.8a11.959,11.959,0,0,0,5.882.779C31.221,11.039,33.57,10.144,34.75,9a3.206,3.206,0,0,0,.97-1.749h0c.309-1.634-.685-3.354-1.376-4.316h0a9.383,9.383,0,0,0-.613-.763h0l7.046.5a14.005,14.005,0,0,1,9.112,4.2c.167.169.328.347.484.537C53.452,10.988,52.877,14.051,52.431,15.276Z" transform="translate(106.331 92.381)" fill="#a2abc9"/>
    <path id="Path-10" data-name="Path" d="M1.447,0S1.985,4.3.91,5.643s-1.344,7.524,0,11.286Z" transform="translate(115.145 107.155)" opacity="0.05"/>
    <rect id="Rectangle-5" data-name="Rectangle" width="18.273" height="7.524" rx="3.75" transform="translate(117.936 116.289)" fill="#cdd0db"/>
    <rect id="Rectangle-6" data-name="Rectangle" width="18.273" height="7.524" rx="3.75" transform="translate(117.936 116.289)" opacity="0.05"/>
    <rect id="Rectangle-7" data-name="Rectangle" width="18.273" height="7.524" rx="3.75" transform="translate(117.936 116.557)" fill="#cdd0db"/>
    <circle id="Oval-4" data-name="Oval" cx="0.806" cy="0.806" r="0.806" transform="translate(131.506 119.379)" fill="#9da7c0"/>
    <path id="Path-11" data-name="Path" d="M.21,9.213a5.226,5.226,0,0,1,3.036-3.2,4.727,4.727,0,0,0,2.607-2.34C6.912,1.329,8.793-1.089,13.629.523S12.286,3.21,12.286,3.21,23.3,1.6,19,4.822A41.156,41.156,0,0,1,9.33,9.928l-2.647,2.8a3.959,3.959,0,0,1-5.912-.118A3.434,3.434,0,0,1,.21,9.213Z" transform="translate(109.949 118.993)" opacity="0.05"/>
    <path id="Path-12" data-name="Path" d="M.21,9.213a5.226,5.226,0,0,1,3.036-3.2,4.727,4.727,0,0,0,2.607-2.34C6.912,1.329,8.793-1.089,13.629.523S12.286,3.21,12.286,3.21,23.3,1.6,19,4.822A41.156,41.156,0,0,1,9.33,9.928l-2.647,2.8a3.959,3.959,0,0,1-5.912-.118A3.434,3.434,0,0,1,.21,9.213Z" transform="translate(109.681 118.456)" fill="#ffb9b9"/>
    <path id="Path-13" data-name="Path" d="M18.452,13.22l-1.881,4.568-2.418-1.771L7.434,11.07,2.866,8.114c-6.449-4.837,0-5.643,0-5.643-2.418-1.075,0-2.15,0-2.15,8.6-1.881,6.987,5.106,6.987,5.106L15.3,8.251l1.808.938Z" transform="translate(129.311 120.001)" opacity="0.05"/>
    <path id="Path-14" data-name="Path" d="M18.452,13.22l-1.881,4.568-2.418-1.771L7.434,11.07,2.866,8.114c-6.449-4.837,0-5.643,0-5.643-2.418-1.075,0-2.15,0-2.15,8.6-1.881,6.987,5.106,6.987,5.106L15.3,8.251l1.808.938Z" transform="translate(129.849 119.463)" fill="#ffb9b9"/>
    <path id="Path-15" data-name="Path" d="M4.3,4.969,2.418,9.537,0,7.766C2.179,7.844,4.754,6.79,1.137,0L2.945.938Z" transform="translate(144.001 127.714)" opacity="0.05"/>
    <path id="Path-16" data-name="Path" d="M15.854,0l.519,2.115-1.593,15.62-1.344,10.48S12.9,35.2,6.718,33.321,0,29.559,0,29.559s8.868,2.956,3.225-7.524c0,0,3.225,1.612,2.687-2.687a80.373,80.373,0,0,1,0-11.823Z" transform="translate(142.389 105.543)" fill="#a2abc9"/>
    <path id="Path-17" data-name="Path" d="M23.1,11.538a11.555,11.555,0,0,1-9,11.27,5.848,5.848,0,0,1-.379-3.362c.537-2.2,3.079-3.8,2.8-6.041a1.489,1.489,0,0,0-.269-.7c-.567-.747-1.722-.376-2.641-.191A5.026,5.026,0,0,1,7.992,9.045,7.855,7.855,0,0,1,0,10.9a11.555,11.555,0,0,1,23.091.642Z" transform="translate(124.122 68.208)" opacity="0.05"/>
    <path id="Path-18" data-name="Path" d="M13.175,16.14A5.019,5.019,0,0,0,18.794,19.6c.919-.183,2.074-.554,2.641.193a1.451,1.451,0,0,1,.255.7c.285,2.246-2.249,3.845-2.795,6.043-.562,2.263,1.075,4.447,1.438,6.75a25.51,25.51,0,0,1,0,3.818A4.63,4.63,0,0,0,21.581,40.6c.946.849,2.687.865,3.324-.242,3.023,1.6,1.817,6.551,4.111,9.085A6.2,6.2,0,0,0,34.243,51a2.2,2.2,0,0,0,1.228-.4,2.15,2.15,0,0,0,.6-1.129,9.166,9.166,0,0,0-.234-5.436,5.678,5.678,0,0,1-.621-2.558,3.778,3.778,0,0,1,.932-1.827c1.443-1.79,3.413-3.52,3.4-5.82S37.542,29.8,36.8,27.655c-1.013-2.937.392-6.084.97-9.136A17.329,17.329,0,0,0,34.111,4.411a4.848,4.848,0,0,0-2.15-1.663c-1.325-.425-2.736.167-4.119.339C23.274,3.658,19.133-.335,14.549.023a2.44,2.44,0,0,0-.881.2A3.784,3.784,0,0,0,12.385,1.7c-2.023,3.023-6,3.886-9.117,5.761C-5.823,12.932,6.21,22.842,13.175,16.14Z" transform="translate(119.223 60.575)" fill="#b0605d"/>
    <path id="Path-19" data-name="Path" d="M.944,61.192S-2.946,41.479,5.067,27.968a30.445,30.445,0,0,0,4.2-18.794A51.2,51.2,0,0,0,7.386,0" transform="translate(186.903 148.467)" fill="none" stroke="#535461" stroke-miterlimit="10" stroke-width="2"/>
    <path id="Path-20" data-name="Path" d="M8.53,4.759c-.215,2.351-5.106,8.782-5.106,8.782S-.208,6.328.009,3.974a4.278,4.278,0,1,1,8.518.782Z" transform="translate(190.761 135.163)" fill="#96b0f7"/>
    <path id="Path-21" data-name="Path" d="M9.056,6.776C7.6,8.633,0,11.377,0,11.377S.871,3.347,2.33,1.491A4.278,4.278,0,0,1,9.048,6.776Z" transform="translate(196.081 146.821)" fill="#96b0f7"/>
    <path id="Path-22" data-name="Path" d="M10.139,8.234C7.94,9.1,0,7.632,0,7.632S4.8,1.14,7,.275a4.278,4.278,0,0,1,3.136,7.959Z" transform="translate(192.644 167.602)" fill="#96b0f7"/>
    <path id="Path-23" data-name="Path" d="M10.1,7.972C8.075,9.2,0,9.092,0,9.092S3.638,1.883,5.659.657A4.278,4.278,0,1,1,10.1,7.972Z" transform="translate(187.119 184.29)" fill="#96b0f7"/>
    <path id="Path-24" data-name="Path" d="M1.069,7.107c1.537,1.8,9.241,4.213,9.241,4.213S9.1,3.334,7.567,1.542a4.278,4.278,0,1,0-6.5,5.565Z" transform="translate(186.026 150.725)" fill="#96b0f7"/>
    <path id="Path-25" data-name="Path" d="M2.061,7.936c2,1.252,10.079,1.255,10.079,1.255S8.6,1.936,6.594.681A4.278,4.278,0,1,0,2.061,7.936Z" transform="translate(178.765 169.186)" fill="#96b0f7"/>
    <path id="Path-26" data-name="Path" d="M1.482,7.511C3.245,9.083,11.2,10.453,11.2,10.453S8.939,2.7,7.173,1.129A4.278,4.278,0,1,0,1.479,7.513Z" transform="translate(175.821 189.201)" fill="#96b0f7"/>
    <path id="Path-27" data-name="Path" d="M75.777,10.174A10.174,10.174,0,0,0,65.6,0H10.174a10.174,10.174,0,0,0,0,20.347l46.345-.089,10.66,9.3V20.21a10.165,10.165,0,0,0,8.6-10.036Z" transform="translate(44.284 32.203)" fill="#96b0f7"/>
    <circle id="Oval-5" data-name="Oval" cx="3.509" cy="3.509" r="3.509" transform="translate(52.706 39.216)" fill="#fff" opacity="0.2"/>
    <circle id="Oval-6" data-name="Oval" cx="3.509" cy="3.509" r="3.509" transform="translate(64.631 39.216)" fill="#fff" opacity="0.2"/>
    <circle id="Oval-7" data-name="Oval" cx="3.509" cy="3.509" r="3.509" transform="translate(76.559 39.216)" fill="#fff" opacity="0.2"/>
    <rect id="Rectangle-8" data-name="Rectangle" width="27.946" height="8.33" transform="translate(101.254 158.23)" fill="#96b0f7"/>
    <rect id="Rectangle-9" data-name="Rectangle" width="27.946" height="8.33" transform="translate(138.605 158.23)" fill="#96b0f7" opacity="0.198"/>
  </g>
</svg>
