<svg id="Google" xmlns="http://www.w3.org/2000/svg" width="50" height="50" viewBox="0 0 50 50">
  <circle id="Oval" cx="25" cy="25" r="25" fill="#db685a"/>
  <path id="google_plus_165_" data-name="google_plus [#165]" d="M9.565,18A9.815,9.815,0,0,1,2.8,15.365a8.634,8.634,0,0,1,0-12.729A9.813,9.813,0,0,1,9.565,0a9.538,9.538,0,0,1,6.41,2.337l-2.6,2.322A5.573,5.573,0,0,0,9.565,3.214a6.118,6.118,0,0,0-4.19,1.606A5.356,5.356,0,0,0,3.634,8.777a5.2,5.2,0,0,0,1.741,3.9,6.217,6.217,0,0,0,4.19,1.548,5.3,5.3,0,0,0,5.426-4.343H9V7.061h9.6a8.143,8.143,0,0,1,.149,1.821,9.162,9.162,0,0,1-2.522,6.487,8.5,8.5,0,0,1-2.9,1.93A9.983,9.983,0,0,1,9.565,18ZM27,12.7H24V9.881H21V7.061h3V4.239h3V7.061h3V9.881H27V12.7Z" transform="translate(10 16)" fill="#fff"/>
</svg>
