<svg xmlns="http://www.w3.org/2000/svg" width="150.578" height="23.328" viewBox="0 0 150.578 23.328">
  <path id="TANGO" d="M11.984,0V-18.656h6.531v-3.891H.75v3.891H7.266V0ZM43.844,0h5.016L41.016-22.547H35.469L27.641,0h4.844L34.2-5.469h7.922ZM38.109-18.234h.109L41.109-9H35.219ZM66.672,0V-14.766h.141L77.359,0h3.906V-22.547H76.75V-7.859h-.125L66.094-22.547H62.156V0Zm49.5-9.469v-2.547h-9.5v3.438h4.906l-.016.359c-.094,2.8-2.234,4.688-5.312,4.688-3.75,0-6.125-2.984-6.125-7.875,0-4.8,2.234-7.625,5.953-7.625a5.089,5.089,0,0,1,5.156,3.766h4.734c-.672-4.562-4.641-7.672-9.906-7.672-6.625,0-10.75,4.375-10.75,11.594,0,7.328,4.125,11.734,10.859,11.734C112.453.391,116.172-3.328,116.172-9.469Zm24.281-13.469c-6.687,0-10.875,4.484-10.875,11.672,0,7.172,4.188,11.656,10.875,11.656,6.672,0,10.875-4.484,10.875-11.656C151.328-18.453,147.125-22.937,140.453-22.937Zm0,3.938c3.688,0,6.047,3,6.047,7.734,0,4.719-2.359,7.7-6.047,7.7-3.7,0-6.062-2.984-6.062-7.7C134.391-16,136.766-19,140.453-19Z" transform="translate(-0.75 22.938)" fill="#333"/>
</svg>
