<svg id="Twitter" xmlns="http://www.w3.org/2000/svg" width="50" height="50" viewBox="0 0 50 50">
  <circle id="Oval" cx="25" cy="25" r="25" fill="#009fda"/>
  <path id="twitter_154_" data-name="twitter [#154]" d="M9.435,24A17.252,17.252,0,0,0,26.948,6.758c0-.263,0-.524-.018-.784A12.4,12.4,0,0,0,30,2.837a12.41,12.41,0,0,1-3.534.954A6.105,6.105,0,0,0,29.172.439,12.454,12.454,0,0,1,25.263,1.91a6.23,6.23,0,0,0-8.709-.263,6.008,6.008,0,0,0-1.781,5.791A17.576,17.576,0,0,1,2.088,1.106,6.008,6.008,0,0,0,3.994,9.195,6.182,6.182,0,0,1,1.2,8.437v.077a6.088,6.088,0,0,0,4.938,5.94,6.217,6.217,0,0,1-2.778.1,6.15,6.15,0,0,0,5.75,4.209,12.473,12.473,0,0,1-7.644,2.6A12.815,12.815,0,0,1,0,21.278,17.63,17.63,0,0,0,9.435,24" transform="translate(10 13)" fill="#fff"/>
</svg>
